{"glyphs":{"0":{"ha":692,"x_min":36,"x_max":653,"o":"m 345 -20 q 585 150 515 -5 q 653 431 655 304 l 653 492 q 581 783 654 630 q 345 948 507 935 q 115 798 194 939 q 36 500 37 656 l 36 431 q 106 147 34 299 q 345 -20 178 -5 m 439 570 l 439 365 q 437 235 439 296 q 426 126 435 174 q 398 52 418 79 q 345 23 379 24 q 289 52 309 24 q 261 126 269 79 q 251 235 253 174 q 250 365 249 296 l 250 570 q 251 698 249 638 q 260 804 253 758 q 287 877 268 850 q 339 903 306 903 q 396 877 375 903 q 426 804 416 850 q 437 698 435 758 q 439 570 439 638 "},"1":{"ha":692,"x_min":83,"x_max":619,"o":"m 619 0 l 619 26 q 487 56 520 24 q 456 165 453 87 l 456 948 l 436 948 l 92 804 q 93 790 92 802 q 92 770 94 778 q 153 790 129 783 q 192 798 178 798 q 237 781 226 798 q 248 728 248 764 l 248 165 q 215 56 250 87 q 83 26 181 24 l 83 0 l 619 0 "},"2":{"ha":692,"x_min":17,"x_max":639,"o":"m 581 0 l 639 295 l 611 295 q 560 212 593 243 q 441 181 526 182 l 214 181 q 371 343 301 276 q 487 465 440 410 q 559 577 534 520 q 586 706 585 634 q 526 875 587 805 q 339 948 466 945 q 144 863 222 944 q 41 670 66 782 l 72 670 q 138 761 97 727 q 239 795 178 795 q 352 750 305 794 q 400 634 398 706 q 371 489 399 555 q 292 358 343 423 q 172 217 241 294 q 17 37 102 140 l 17 0 l 581 0 "},"3":{"ha":692,"x_min":5,"x_max":619,"o":"m 619 337 q 583 490 620 429 q 458 587 545 552 q 544 666 517 623 q 570 770 570 709 q 514 897 569 847 q 355 948 460 946 q 157 885 239 945 q 36 740 76 825 l 61 726 q 141 809 98 779 q 239 840 183 839 q 331 802 293 839 q 370 703 368 765 q 331 592 371 635 q 197 517 292 548 l 197 495 q 402 379 338 454 q 467 203 467 304 q 431 100 466 149 q 339 48 396 52 q 227 119 271 57 q 94 190 182 181 q 26 166 47 189 q 5 104 5 143 q 68 13 8 45 q 211 -20 127 -18 q 507 91 397 -14 q 619 337 616 196 "},"4":{"ha":692,"x_min":31,"x_max":653,"o":"m 570 0 l 570 206 l 653 206 l 653 356 l 570 356 l 570 948 l 461 948 l 31 359 l 31 206 l 375 206 l 375 0 l 570 0 m 375 356 l 89 356 l 375 753 l 375 356 "},"5":{"ha":692,"x_min":33,"x_max":639,"o":"m 375 62 q 250 124 306 70 q 109 186 195 179 q 52 160 71 185 q 33 104 33 134 q 89 12 35 43 q 228 -20 142 -19 q 514 74 412 -17 q 616 323 615 165 q 501 556 615 475 q 180 637 387 636 l 211 753 l 586 753 l 639 928 l 208 928 l 75 451 q 390 381 270 444 q 514 201 511 317 q 475 102 513 141 q 375 62 437 63 "},"6":{"ha":692,"x_min":47,"x_max":653,"o":"m 653 281 q 591 491 652 410 q 416 576 530 573 q 348 569 378 576 q 289 548 317 563 q 402 781 312 674 q 647 912 492 888 l 647 948 q 205 761 360 919 q 47 345 50 604 q 129 94 49 201 q 353 -20 210 -14 q 575 75 497 -14 q 653 281 652 164 m 261 331 q 270 475 259 433 q 328 515 280 516 q 396 488 371 515 q 431 418 421 460 q 444 327 441 376 q 447 234 447 279 q 437 89 450 155 q 364 18 424 22 q 303 54 325 19 q 273 139 282 88 q 262 242 264 190 q 261 331 260 294 "},"7":{"ha":692,"x_min":45,"x_max":661,"o":"m 489 748 l 216 -20 l 336 -20 l 661 928 l 109 928 l 45 626 l 75 626 q 125 713 96 679 q 222 748 154 747 l 489 748 "},"8":{"ha":692,"x_min":45,"x_max":644,"o":"m 248 437 q 105 362 163 416 q 45 195 47 308 q 128 39 48 96 q 325 -20 208 -18 q 554 55 467 -18 q 644 256 642 128 q 590 427 644 363 q 444 548 537 490 q 580 623 532 578 q 628 745 627 667 q 552 891 626 836 q 358 948 479 947 q 142 874 221 945 q 61 695 62 802 q 115 543 63 602 q 248 437 166 485 m 467 743 q 453 648 467 690 q 408 573 439 606 q 292 664 345 614 q 236 779 239 714 q 263 868 236 833 q 347 903 291 902 q 436 860 406 903 q 467 743 467 817 m 281 414 q 408 309 361 366 q 456 168 454 252 q 425 65 456 106 q 330 23 395 24 q 238 83 270 27 q 205 201 205 138 q 221 315 205 261 q 281 414 238 368 "},"9":{"ha":692,"x_min":45,"x_max":653,"o":"m 45 645 q 106 435 45 517 q 281 351 168 353 q 351 357 320 351 q 411 378 382 363 q 296 145 388 252 q 50 15 205 39 l 50 -20 q 496 166 341 10 q 653 581 652 323 q 570 834 652 726 q 345 948 488 943 q 123 853 200 943 q 45 645 45 763 m 370 412 q 299 440 325 413 q 263 510 273 467 q 251 601 253 553 q 250 692 249 649 q 261 838 248 771 q 334 909 274 905 q 394 875 372 909 q 425 790 415 841 q 437 687 435 740 q 439 595 439 634 q 430 452 441 493 q 370 412 419 410 "}," ":{"ha":344,"x_min":0,"x_max":0,"o":""},"¬":{"ha":1153,"x_min":172,"x_max":978,"o":"m 172 578 l 172 448 l 847 448 l 847 242 l 978 242 l 978 578 l 172 578 "},"π":{"ha":997,"x_min":11,"x_max":972,"o":"m 258 592 q 90 513 147 590 q 11 309 33 436 l 53 309 q 110 393 68 376 q 208 409 151 411 l 317 409 q 276 289 297 341 q 238 196 256 237 q 211 120 221 156 q 200 48 200 84 q 221 -10 201 10 q 278 -31 242 -30 q 360 21 341 -27 q 378 125 380 68 q 375 210 378 164 q 372 270 373 256 q 375 337 373 286 q 378 409 378 387 l 636 409 q 596 289 616 341 q 558 196 575 237 q 530 120 541 156 q 519 48 519 84 q 541 -10 520 10 q 597 -31 562 -30 q 680 21 661 -27 q 697 125 699 68 q 695 210 697 164 q 692 270 692 256 q 695 337 692 286 q 697 409 697 387 l 933 409 l 972 592 l 258 592 "},"∑":{"ha":911,"x_min":3,"x_max":905,"o":"m 650 992 l 3 992 l 3 948 l 441 429 l 3 45 l 3 0 l 703 0 q 726 -3 719 0 q 733 -17 733 -6 q 727 -48 733 -27 q 711 -94 720 -70 l 770 -94 l 905 359 l 847 359 q 795 208 810 235 q 747 186 779 181 l 244 186 q 332 263 283 222 q 433 349 380 305 q 533 433 485 393 q 619 507 581 473 l 619 537 l 289 937 l 561 937 q 720 904 684 941 q 806 726 755 867 l 864 726 l 747 1076 l 700 1076 l 705 1017 q 695 999 706 1005 q 650 992 684 992 "},"Ω":{"ha":1061,"x_min":20,"x_max":1042,"o":"m 64 568 q 113 358 62 468 q 297 170 164 248 l 297 159 l 97 159 l 69 256 l 20 256 l 97 0 l 456 0 q 343 354 368 199 q 322 581 319 509 q 350 797 316 656 q 530 954 385 937 q 711 797 676 937 q 739 581 745 656 q 718 354 743 509 q 606 0 694 199 l 964 0 l 1042 256 l 991 256 l 964 159 l 764 159 l 764 170 q 948 358 897 248 q 997 568 1000 468 q 866 881 994 758 q 530 1009 739 1004 q 195 881 323 1004 q 64 568 67 758 "},"∞":{"ha":1153,"x_min":139,"x_max":1014,"o":"m 345 684 q 190 597 241 680 q 139 409 139 514 q 205 210 142 286 q 361 132 269 134 q 495 188 445 135 q 578 307 545 241 q 662 196 608 255 q 806 132 715 137 q 961 218 908 136 q 1014 409 1014 300 q 945 610 1010 537 q 789 684 880 683 q 656 627 711 681 q 572 509 600 573 q 495 616 547 555 q 345 684 443 678 m 205 406 q 245 505 206 466 q 353 545 283 544 q 446 519 403 545 q 519 442 490 492 q 433 316 477 359 q 336 273 389 273 q 244 310 281 274 q 205 406 207 347 m 631 376 q 702 484 659 428 q 817 545 745 541 q 909 508 874 545 q 945 409 944 472 q 898 304 942 337 q 803 273 854 272 q 701 302 740 273 q 631 376 663 331 "},"≥":{"ha":1153,"x_min":175,"x_max":978,"o":"m 978 125 l 175 125 l 175 -3 l 978 -3 l 978 125 m 978 573 l 175 831 l 175 695 l 745 515 l 175 337 l 175 198 l 978 456 l 978 573 "},"≤":{"ha":1153,"x_min":175,"x_max":978,"o":"m 175 125 l 175 -3 l 978 -3 l 978 125 l 175 125 m 175 573 l 175 456 l 978 198 l 978 337 l 408 515 l 978 695 l 978 831 l 175 573 "},"÷":{"ha":1153,"x_min":172,"x_max":978,"o":"m 978 473 l 172 473 l 172 342 l 978 342 l 978 473 m 475 673 q 503 601 475 628 q 575 573 530 574 q 647 601 620 574 q 675 673 674 628 q 647 745 674 718 q 575 773 620 772 q 503 745 530 772 q 475 673 475 718 m 575 42 q 647 70 620 43 q 675 142 674 98 q 647 214 674 187 q 575 242 620 241 q 503 214 530 241 q 475 142 475 187 q 503 70 475 98 q 575 42 530 43 "},"!":{"ha":450,"x_min":109,"x_max":339,"o":"m 220 -20 q 304 14 271 -18 q 339 90 338 45 q 309 171 338 135 q 225 209 279 207 q 140 174 170 208 q 109 95 109 140 q 139 16 109 50 q 220 -20 169 -18 m 336 834 q 312 920 337 882 q 231 959 287 957 q 144 922 174 958 q 114 834 114 887 q 127 728 114 784 q 159 608 140 671 q 192 471 178 544 q 208 315 205 398 l 244 315 q 259 471 245 398 q 290 608 272 544 q 322 728 309 671 q 336 834 335 784 "},"\"":{"ha":478,"x_min":53,"x_max":425,"o":"m 342 573 l 370 573 q 402 763 382 650 q 425 912 423 877 q 409 964 425 945 q 358 984 392 983 q 306 964 325 983 q 286 912 287 945 q 310 759 289 873 q 342 573 331 646 m 53 912 q 77 759 56 873 q 109 573 98 646 l 136 573 q 169 763 149 650 q 192 912 190 877 q 175 964 192 945 q 125 984 159 983 q 73 964 92 983 q 53 912 54 945 "},"#":{"ha":1064,"x_min":31,"x_max":1031,"o":"m 370 273 l 542 273 l 441 -5 l 586 -5 l 686 273 l 884 273 l 930 404 l 733 404 l 794 573 l 983 573 l 1031 703 l 842 703 l 942 984 l 798 984 l 697 703 l 522 703 l 623 984 l 481 984 l 380 703 l 178 703 l 127 573 l 334 573 l 272 404 l 78 404 l 31 273 l 225 273 l 125 -5 l 269 -5 l 370 273 m 416 404 l 475 573 l 650 573 l 589 404 l 416 404 "},"$":{"ha":692,"x_min":50,"x_max":653,"o":"m 372 0 q 576 84 501 3 q 653 276 652 164 q 627 394 652 345 q 563 479 603 444 q 473 541 522 515 q 372 589 424 568 l 372 884 q 505 803 459 867 q 564 665 550 739 l 595 665 l 595 859 q 484 908 543 890 q 372 926 425 926 l 372 1017 l 302 1017 l 302 926 q 124 853 196 922 q 50 690 53 785 q 120 511 52 574 q 302 389 189 448 l 302 42 q 167 125 212 58 q 103 276 122 193 l 72 276 l 72 59 q 184 14 123 28 q 302 0 245 0 l 302 -136 l 372 -136 l 372 0 m 302 884 l 302 623 q 212 686 241 652 q 183 768 183 720 q 219 849 184 815 q 302 884 253 883 m 372 351 q 467 285 429 319 q 505 193 504 251 q 468 90 505 136 q 372 42 432 45 l 372 351 "},"%":{"ha":1089,"x_min":22,"x_max":1055,"o":"m 1008 359 q 944 152 1004 247 q 811 51 884 57 q 763 73 781 52 q 745 125 745 94 q 802 326 747 210 q 930 454 857 442 q 988 426 968 453 q 1008 359 1008 399 m 325 937 q 109 822 193 932 q 22 556 25 711 q 70 456 24 503 q 183 406 115 410 q 417 543 345 418 q 489 768 490 669 l 486 817 q 520 811 503 813 q 555 809 536 809 q 639 819 597 809 q 714 848 680 829 l 233 -20 l 302 -20 l 847 948 l 791 948 q 675 882 743 906 q 553 857 608 857 q 446 897 476 861 q 325 937 416 932 m 766 -14 q 981 119 907 -3 q 1055 353 1055 241 q 1016 473 1055 428 q 897 520 977 519 q 676 410 763 514 q 586 176 589 305 q 631 45 586 100 q 766 -14 677 -10 m 175 548 q 242 749 180 636 q 358 873 304 862 q 383 860 372 872 q 433 837 394 848 q 439 803 437 820 q 441 770 441 787 q 385 586 440 690 q 241 473 330 482 q 197 489 217 472 q 175 548 176 507 "},"&":{"ha":1086,"x_min":61,"x_max":1044,"o":"m 61 220 q 128 53 62 121 q 319 -20 194 -16 q 495 18 418 -17 q 625 101 572 53 q 712 15 667 47 q 828 -20 757 -18 q 968 34 918 -16 q 1044 151 1017 83 l 1022 170 q 993 136 1010 151 q 945 120 975 121 q 857 158 897 121 q 778 248 817 195 q 883 385 848 327 q 936 480 917 444 q 977 535 954 517 q 1044 551 999 552 l 1044 581 l 764 581 l 764 551 q 836 534 815 551 q 856 487 857 518 q 819 386 853 438 q 750 292 785 333 q 705 357 729 321 q 654 431 681 393 q 600 510 628 470 q 547 587 572 549 q 688 664 631 618 q 747 792 745 709 q 692 907 747 861 q 528 956 636 954 q 326 892 397 954 q 253 734 254 830 q 274 641 254 692 q 322 537 294 589 q 143 417 220 492 q 61 220 65 342 m 517 629 q 440 745 467 699 q 414 823 414 791 q 437 888 414 865 q 497 912 459 911 q 584 856 552 909 q 616 743 616 802 q 594 674 617 701 q 517 629 572 647 m 244 348 q 274 436 245 398 q 355 498 303 475 q 474 323 406 423 q 600 142 543 223 q 540 105 577 123 q 450 87 503 88 q 309 179 370 94 q 244 348 248 264 "},"’":{"ha":345,"x_min":47,"x_max":289,"o":"m 66 487 q 232 624 175 551 q 289 798 288 696 q 259 905 290 857 q 161 956 228 954 q 75 921 103 955 q 47 840 47 887 q 70 766 47 798 q 136 731 92 733 q 185 729 173 732 q 197 712 198 726 q 154 608 196 654 q 47 517 112 561 l 66 487 "},"(":{"ha":530,"x_min":127,"x_max":481,"o":"m 281 423 q 320 715 278 595 q 481 912 362 836 l 481 956 q 225 716 320 867 q 127 351 130 565 q 214 8 127 161 q 475 -236 300 -146 l 475 -200 q 318 -14 357 -116 q 281 231 278 89 l 281 423 "},")":{"ha":530,"x_min":47,"x_max":400,"o":"m 248 423 l 248 254 q 210 6 251 129 q 47 -192 169 -116 l 47 -236 q 314 22 227 -133 q 400 351 401 177 q 313 709 400 551 q 53 956 226 867 l 53 920 q 214 719 176 842 q 248 423 252 595 "},"*":{"ha":692,"x_min":81,"x_max":608,"o":"m 530 479 q 585 501 563 479 q 608 559 608 523 q 538 627 606 627 q 364 665 470 626 q 446 693 403 685 q 519 701 489 701 q 588 719 567 701 q 608 773 609 737 q 590 826 608 805 q 533 848 572 847 q 454 786 484 842 q 355 684 424 729 q 389 811 363 766 q 419 890 416 857 q 402 935 419 916 q 347 956 385 955 q 292 938 311 956 q 272 892 272 920 q 301 806 275 846 q 334 684 328 766 q 232 791 255 736 q 155 850 209 846 q 100 824 120 849 q 81 768 81 798 q 104 720 81 738 q 164 701 126 701 q 250 691 210 701 q 325 665 290 682 q 166 629 246 628 q 81 559 87 629 q 98 507 81 534 q 153 479 115 481 q 242 549 208 486 q 336 642 277 612 q 304 528 332 572 q 272 434 276 484 q 293 389 273 405 q 347 373 313 373 q 399 393 379 374 q 419 442 418 412 q 389 524 415 488 q 358 645 362 560 q 460 536 431 589 q 530 479 489 483 "},"+":{"ha":1153,"x_min":172,"x_max":981,"o":"m 509 0 l 644 0 l 644 345 l 981 345 l 981 475 l 644 475 l 644 820 l 509 820 l 509 475 l 172 475 l 172 345 l 509 345 l 509 0 "},",":{"ha":345,"x_min":47,"x_max":289,"o":"m 66 -264 q 232 -126 175 -198 q 289 45 288 -55 q 259 153 290 104 q 161 203 228 201 q 75 168 103 202 q 47 87 47 134 q 70 14 47 45 q 136 -20 92 -18 q 185 -21 173 -18 q 197 -39 198 -24 q 154 -142 196 -96 q 47 -233 112 -189 l 66 -264 "},"-":{"ha":456,"x_min":61,"x_max":392,"o":"m 61 395 l 61 234 l 392 234 l 392 395 l 61 395 "},".":{"ha":345,"x_min":58,"x_max":283,"o":"m 58 95 q 88 14 59 46 q 170 -20 117 -18 q 252 12 222 -18 q 283 95 283 43 q 250 178 282 148 q 170 209 218 208 q 90 176 121 208 q 58 95 59 144 "},"/":{"ha":372,"x_min":-23,"x_max":361,"o":"m 47 -127 l 361 956 l 289 956 l -23 -127 l 47 -127 "},":":{"ha":378,"x_min":61,"x_max":292,"o":"m 178 -20 q 264 14 236 -18 q 292 90 292 46 q 262 173 292 139 q 178 209 233 208 q 93 176 125 208 q 61 98 62 145 q 89 15 61 47 q 178 -20 117 -18 m 61 531 q 93 453 62 484 q 180 420 124 422 q 264 453 237 422 q 292 528 292 484 q 263 617 292 584 q 180 651 235 650 q 94 617 125 650 q 61 531 62 585 "},";":{"ha":378,"x_min":61,"x_max":306,"o":"m 83 -261 q 249 -124 192 -195 q 306 48 305 -52 q 275 155 306 107 q 178 206 244 203 q 92 171 119 205 q 64 90 64 137 q 86 15 64 45 q 153 -17 109 -15 q 202 -19 189 -16 q 214 -36 214 -22 q 169 -140 212 -93 q 61 -231 125 -186 l 83 -261 m 61 537 q 93 453 62 486 q 178 420 123 421 q 262 453 233 421 q 292 537 292 484 q 258 620 290 589 q 178 651 227 650 q 96 619 129 650 q 61 537 62 588 "},"<":{"ha":1153,"x_min":178,"x_max":970,"o":"m 178 342 l 970 15 l 970 159 l 364 406 l 970 654 l 970 801 l 178 473 l 178 342 "},"=":{"ha":1153,"x_min":172,"x_max":981,"o":"m 172 198 l 981 198 l 981 328 l 172 328 l 172 198 m 172 490 l 981 490 l 981 620 l 172 620 l 172 490 "},">":{"ha":1153,"x_min":180,"x_max":972,"o":"m 180 15 l 972 342 l 972 473 l 180 801 l 180 654 l 786 406 l 180 162 l 180 15 "},"?":{"ha":672,"x_min":50,"x_max":583,"o":"m 300 206 q 216 170 245 204 q 186 90 186 135 q 218 11 186 43 q 300 -22 249 -20 q 384 12 353 -20 q 416 92 416 45 q 385 171 416 138 q 300 206 355 205 m 180 857 q 202 896 181 880 q 258 912 222 911 q 356 858 333 909 q 378 734 380 806 q 362 615 376 663 q 330 533 349 568 q 297 469 311 499 q 283 404 283 438 l 283 320 l 325 320 l 325 384 q 365 463 326 434 q 453 519 403 491 q 542 598 503 548 q 583 743 581 649 q 509 893 582 833 q 306 956 436 954 q 117 895 182 954 q 50 748 51 836 q 77 678 51 704 q 144 651 102 652 q 209 672 186 652 q 231 728 231 693 q 205 813 227 793 q 180 857 184 833 "},"@":{"ha":1364,"x_min":92,"x_max":1272,"o":"m 725 -150 q 337 -15 475 -146 q 197 345 199 117 q 374 776 205 621 q 770 934 543 931 q 1103 816 979 930 q 1231 515 1227 701 q 1139 234 1225 344 q 964 120 1053 124 q 923 138 935 120 q 911 186 911 155 q 930 283 911 209 q 975 446 950 357 q 1018 599 999 534 q 1039 667 1038 665 l 911 667 l 878 553 q 838 641 872 605 q 730 678 803 677 q 498 567 600 674 q 392 298 397 460 q 441 146 392 211 q 591 79 490 82 q 712 118 663 80 q 791 212 761 156 q 833 116 794 154 q 939 76 871 77 q 1171 203 1074 81 q 1272 512 1267 326 q 1139 842 1272 711 q 755 979 1007 974 q 280 792 463 971 q 92 351 97 612 q 247 -30 92 127 q 711 -195 403 -187 q 995 -143 882 -191 q 1169 -45 1107 -96 l 1145 -11 q 959 -107 1065 -66 q 725 -150 852 -147 m 530 229 q 595 479 533 336 q 750 637 658 623 q 820 602 801 635 q 839 520 840 568 q 777 279 838 420 q 614 123 715 137 q 554 156 578 124 q 530 229 531 187 "},"A":{"ha":900,"x_min":-15,"x_max":911,"o":"m 578 125 q 567 55 594 76 q 472 34 539 33 l 472 0 l 911 0 l 911 34 q 848 62 871 35 q 806 140 825 90 l 461 956 l 425 956 q 351 773 393 878 q 262 555 309 669 q 174 336 216 441 q 100 151 131 231 q 58 71 84 105 q -15 34 31 36 l -15 0 l 261 0 q 261 14 261 1 q 261 34 261 26 q 165 63 191 35 q 161 142 140 92 l 211 273 l 519 273 l 578 125 m 364 659 l 497 328 l 233 328 l 364 659 "},"B":{"ha":911,"x_min":31,"x_max":859,"o":"m 586 503 q 749 568 686 521 q 814 706 812 616 q 725 874 814 815 q 464 934 637 933 l 31 934 q 31 915 31 930 q 31 898 31 900 q 117 875 83 899 q 153 798 151 852 l 153 134 q 124 61 153 90 q 31 31 95 32 l 31 0 l 478 0 q 749 63 644 0 q 859 262 855 127 q 783 426 857 372 q 586 503 709 480 m 619 239 q 583 98 621 149 q 444 45 545 46 q 388 68 404 47 q 372 117 372 90 l 372 473 q 582 411 539 472 q 619 239 625 351 m 372 512 l 372 834 q 389 872 372 857 q 441 887 406 886 q 557 835 527 885 q 586 712 588 785 q 550 562 590 612 q 372 512 509 512 "},"C":{"ha":964,"x_min":56,"x_max":920,"o":"m 920 181 l 884 214 q 749 96 827 145 q 578 45 672 47 q 357 171 420 52 q 297 454 294 291 q 346 769 293 633 q 558 912 398 905 q 755 816 671 905 q 867 634 840 726 l 897 634 l 897 956 q 884 956 896 956 q 867 956 872 956 q 844 913 859 930 q 794 895 829 896 q 703 926 757 899 q 536 956 649 952 q 188 813 317 952 q 56 448 58 673 q 185 125 58 262 q 525 -20 311 -12 q 779 48 682 -15 q 920 181 875 111 "},"D":{"ha":1022,"x_min":33,"x_max":964,"o":"m 456 890 q 676 747 622 882 q 725 451 730 613 q 673 179 728 305 q 464 45 618 54 q 395 61 418 45 q 372 115 372 77 l 372 809 q 390 868 372 847 q 456 890 409 890 m 475 0 q 848 126 731 3 q 964 462 966 249 q 849 796 966 663 q 464 934 732 929 l 33 934 l 33 901 q 122 876 92 901 q 153 801 153 851 l 153 128 q 123 56 152 80 q 41 31 94 31 l 41 0 l 475 0 "},"E":{"ha":911,"x_min":31,"x_max":884,"o":"m 453 887 l 503 887 q 704 834 629 888 q 791 656 779 780 l 819 656 l 819 934 l 33 934 l 33 903 q 126 876 99 903 q 153 798 153 848 l 153 132 q 126 57 153 85 q 31 28 98 29 l 31 0 l 828 0 l 884 290 q 865 290 876 288 q 844 287 854 292 q 713 107 800 164 q 503 51 626 50 l 461 51 q 391 71 410 51 q 372 125 372 90 l 372 456 q 539 404 497 457 q 591 239 581 351 q 611 239 597 239 q 625 239 624 239 l 625 706 l 595 706 q 534 547 573 595 q 372 500 496 499 l 372 817 q 391 869 372 851 q 453 887 410 887 "},"F":{"ha":833,"x_min":31,"x_max":808,"o":"m 33 898 q 127 870 101 898 q 153 789 154 842 l 153 156 q 127 67 154 101 q 31 31 100 33 l 31 0 l 525 0 l 525 31 q 401 60 432 31 q 372 153 370 89 l 372 459 q 535 400 494 458 q 583 242 577 343 l 619 242 l 619 709 l 583 709 q 530 557 569 610 q 372 503 491 504 l 372 829 q 386 873 372 859 q 436 887 401 887 l 533 887 q 707 820 648 884 q 778 656 766 755 l 808 656 l 808 934 l 31 934 l 33 898 "},"G":{"ha":1044,"x_min":56,"x_max":1025,"o":"m 567 376 q 674 352 644 376 q 703 273 704 327 l 703 142 q 669 51 703 79 q 561 23 635 22 q 365 145 431 27 q 297 445 298 264 q 343 765 293 625 q 547 912 393 905 q 748 818 670 906 q 861 634 826 730 l 897 634 l 897 956 l 859 956 q 837 912 849 929 q 798 895 825 896 q 701 926 761 899 q 525 956 641 952 q 171 800 288 949 q 56 445 55 650 q 185 119 58 252 q 542 -20 313 -14 q 749 3 653 -18 q 914 59 844 25 l 914 281 q 941 352 914 329 q 1025 376 967 376 l 1025 406 l 567 406 l 567 376 "},"H":{"ha":1078,"x_min":31,"x_max":1044,"o":"m 922 787 q 953 875 922 847 q 1044 903 984 903 l 1044 934 l 581 934 l 581 903 q 677 874 650 903 q 703 787 704 845 l 703 512 l 372 512 l 372 787 q 398 875 371 847 q 494 903 425 903 l 494 934 l 33 934 l 33 903 q 128 870 102 903 q 153 787 154 838 l 153 156 q 127 61 154 94 q 31 28 100 28 l 31 0 l 494 0 l 494 28 q 391 65 412 30 q 372 156 370 101 l 372 454 l 703 454 l 703 156 q 680 61 705 94 q 581 28 656 28 l 581 0 l 1044 0 l 1044 28 q 950 60 979 28 q 922 156 922 92 l 922 787 "},"I":{"ha":536,"x_min":31,"x_max":503,"o":"m 372 795 q 402 881 372 857 q 500 903 433 905 l 500 934 l 31 934 l 31 903 q 129 879 104 904 q 153 795 155 853 l 153 142 q 123 62 153 92 q 31 31 93 32 l 31 0 l 503 0 l 503 31 q 404 61 436 32 q 372 142 372 90 l 372 795 "},"J":{"ha":681,"x_min":-3,"x_max":647,"o":"m 525 148 l 525 776 q 553 875 524 846 q 647 903 581 904 l 647 934 l 164 934 l 164 903 q 273 871 240 903 q 306 776 307 838 l 306 28 q 280 -59 305 -31 q 208 -86 254 -86 q 171 -75 185 -85 q 155 -53 156 -65 q 172 -6 157 -25 q 189 48 187 12 q 164 122 189 95 q 89 151 139 150 q 21 122 45 150 q -3 51 -3 94 q 59 -84 -1 -34 q 220 -136 120 -134 q 451 -54 376 -133 q 525 148 526 26 "},"K":{"ha":1053,"x_min":31,"x_max":1067,"o":"m 933 112 l 553 584 l 761 792 q 880 876 819 848 q 997 903 942 903 l 997 934 l 597 934 l 597 903 q 712 873 692 903 q 684 792 732 843 l 372 475 l 372 792 q 400 879 372 854 q 494 903 429 904 l 494 934 l 33 934 l 33 903 q 123 876 94 903 q 153 792 153 848 l 153 151 q 128 64 154 96 q 31 31 102 32 l 31 0 l 494 0 l 494 31 q 395 64 420 32 q 372 151 370 96 l 372 404 l 408 439 l 664 115 q 680 51 699 71 q 575 31 661 31 l 575 0 l 1067 0 q 1067 13 1067 1 q 1067 31 1067 24 q 996 51 1026 31 q 933 112 966 71 "},"L":{"ha":880,"x_min":31,"x_max":878,"o":"m 878 315 l 839 315 q 718 119 802 187 q 528 51 634 52 l 458 51 q 391 74 411 51 q 372 142 372 97 l 372 770 q 397 875 370 846 q 514 903 425 905 l 514 934 l 33 934 l 33 903 q 131 868 106 903 q 153 770 155 833 l 153 162 q 128 64 154 99 q 31 28 102 29 l 31 0 l 825 0 l 878 315 "},"M":{"ha":1305,"x_min":31,"x_max":1270,"o":"m 650 287 l 380 934 l 31 934 l 31 898 q 128 873 102 899 q 153 784 154 848 l 153 151 q 123 59 153 88 q 31 31 93 31 l 31 0 l 347 0 l 347 31 q 242 59 271 31 q 214 151 212 87 l 214 812 l 553 0 l 591 0 l 936 820 l 936 151 q 909 59 937 88 q 811 31 881 31 l 811 0 l 1267 0 l 1267 31 q 1170 61 1192 31 q 1150 151 1148 90 l 1150 784 q 1180 869 1150 839 q 1270 901 1209 900 l 1270 934 l 925 934 l 650 287 "},"N":{"ha":1017,"x_min":36,"x_max":986,"o":"m 806 812 l 806 342 l 322 934 l 36 934 l 36 903 q 64 898 52 902 q 86 884 76 895 l 155 798 l 155 140 q 127 56 156 82 q 36 31 98 31 l 36 0 l 342 0 l 342 31 q 244 58 272 31 q 216 140 216 85 l 216 723 l 828 -20 l 867 -20 l 867 812 q 900 881 867 858 q 986 903 933 903 l 986 934 l 681 934 l 681 903 q 773 880 741 903 q 806 812 806 856 "},"O":{"ha":1083,"x_min":56,"x_max":1025,"o":"m 539 956 q 181 799 304 947 q 56 473 57 650 q 171 142 55 294 q 530 -20 288 -9 q 900 135 775 -11 q 1025 473 1024 281 q 898 805 1023 662 q 539 956 773 949 m 297 479 q 349 783 295 659 q 536 912 403 907 q 727 778 670 905 q 783 479 785 650 q 738 168 787 304 q 547 23 690 31 q 350 164 406 30 q 297 479 295 299 "},"P":{"ha":861,"x_min":31,"x_max":842,"o":"m 842 678 q 758 862 842 791 q 497 934 673 932 l 33 934 l 33 901 q 127 870 101 900 q 153 789 154 840 l 153 156 q 128 63 154 96 q 31 31 102 31 l 31 0 l 494 0 l 494 31 q 399 59 427 31 q 372 156 372 88 l 372 423 l 503 423 q 762 501 681 427 q 842 678 843 575 m 436 887 q 569 828 536 886 q 600 675 603 771 q 562 524 602 577 q 422 470 523 471 l 372 470 l 372 831 q 388 871 372 857 q 436 887 403 886 "},"Q":{"ha":1083,"x_min":56,"x_max":1025,"o":"m 547 20 q 349 166 404 28 q 297 473 294 304 q 345 774 294 641 q 533 915 396 907 q 730 773 675 907 q 783 473 785 640 q 738 165 787 302 q 547 20 690 28 m 383 0 q 552 -184 448 -131 q 781 -236 656 -237 q 900 -223 836 -235 q 1017 -186 963 -210 l 1008 -153 q 963 -162 987 -159 q 911 -167 939 -166 q 766 -116 823 -164 q 681 0 709 -68 q 943 187 861 56 q 1025 479 1026 318 q 899 807 1023 664 q 545 959 775 951 q 186 809 315 951 q 56 490 58 667 q 136 187 56 318 q 383 0 217 56 "},"R":{"ha":972,"x_min":31,"x_max":986,"o":"m 153 148 q 126 61 153 92 q 31 31 98 31 l 31 0 l 494 0 q 494 17 494 4 q 494 31 494 30 q 397 62 423 31 q 372 151 371 92 l 372 434 l 414 434 l 694 0 l 986 0 l 986 31 q 939 41 962 29 q 884 101 916 53 l 644 456 q 801 542 747 484 q 856 687 855 600 q 752 874 853 814 q 484 934 650 935 l 33 934 l 33 901 q 127 870 101 901 q 153 776 154 840 l 153 148 m 439 475 l 372 475 l 372 823 q 391 870 372 852 q 444 887 409 887 q 595 820 562 884 q 625 678 629 757 q 575 528 625 580 q 439 475 525 476 "},"S":{"ha":803,"x_min":89,"x_max":736,"o":"m 244 779 q 283 873 244 833 q 397 915 322 913 q 571 832 500 910 q 664 656 642 755 l 697 656 l 697 956 q 680 956 695 956 q 661 956 665 956 q 644 924 653 935 q 614 912 634 912 q 534 934 580 915 q 383 956 488 954 q 176 875 248 953 q 103 690 104 798 q 176 499 106 568 q 338 390 245 431 q 501 308 431 349 q 575 195 571 266 q 534 78 576 128 q 400 26 493 28 q 213 119 275 31 q 127 323 151 208 l 89 323 l 89 -20 l 125 -20 q 142 13 133 2 q 167 23 151 23 q 257 2 219 20 q 389 -20 295 -16 q 643 57 551 -18 q 736 273 734 132 q 658 469 732 401 q 489 576 585 537 q 320 658 393 616 q 244 779 248 701 "},"T":{"ha":872,"x_min":22,"x_max":842,"o":"m 539 892 q 739 824 683 890 q 808 654 795 758 l 842 654 l 842 934 l 22 934 l 22 654 l 56 654 q 125 821 62 752 q 319 892 187 890 l 319 159 q 292 61 321 91 q 189 31 262 31 l 189 0 l 672 0 l 672 31 q 569 58 600 30 q 539 159 538 85 l 539 892 "},"U":{"ha":1014,"x_min":31,"x_max":972,"o":"m 867 304 l 867 781 q 891 869 866 836 q 972 903 916 903 l 972 934 l 677 934 l 677 903 q 780 872 750 903 q 808 781 809 840 l 808 304 q 754 119 810 196 q 567 39 699 43 q 408 116 447 42 q 372 304 369 191 l 372 787 q 395 873 370 844 q 494 903 420 903 l 494 934 l 31 934 l 31 903 q 128 870 102 903 q 153 781 154 838 l 153 295 q 241 53 153 133 q 511 -28 330 -27 q 774 59 683 -26 q 867 304 866 144 "},"V":{"ha":884,"x_min":-26,"x_max":911,"o":"m 472 -25 l 791 795 q 843 879 814 854 q 911 903 872 904 l 911 934 l 619 934 l 619 903 q 720 879 692 904 q 725 792 747 854 l 533 290 l 319 806 q 331 880 300 856 q 433 903 361 903 l 433 934 l -26 934 l -26 903 q 40 868 12 902 q 89 784 68 835 l 436 -25 l 472 -25 "},"W":{"ha":1258,"x_min":-26,"x_max":1283,"o":"m 917 -20 l 1194 814 q 1232 877 1206 851 q 1283 903 1257 902 q 1283 921 1283 909 q 1283 934 1283 932 l 1036 934 l 1036 903 q 1120 873 1100 903 q 1125 795 1141 844 l 975 340 l 819 798 q 820 880 800 856 q 903 903 839 904 l 903 934 l 472 934 l 472 903 q 539 889 507 903 q 581 848 571 876 l 619 728 l 458 309 l 294 792 q 293 872 277 842 q 370 903 310 903 q 370 921 370 909 q 370 934 370 932 l -26 934 l -26 903 q 30 882 7 905 q 72 798 52 859 l 350 -20 l 389 -20 l 650 642 l 878 -20 l 917 -20 "},"X":{"ha":970,"x_min":22,"x_max":953,"o":"m 575 543 l 736 770 q 824 867 777 831 q 942 903 872 903 l 942 934 l 603 934 q 603 920 603 932 q 603 903 603 907 q 698 860 692 901 q 664 764 705 819 l 542 595 l 416 792 q 395 876 381 848 q 500 903 408 903 q 500 920 500 907 q 500 934 500 932 l 31 934 q 31 920 31 932 q 31 903 31 907 q 95 880 66 903 q 142 826 123 858 l 397 426 q 349 360 376 399 q 290 279 321 321 q 231 199 258 237 q 186 134 204 161 q 102 52 141 75 q 22 31 63 30 q 22 17 22 30 q 22 0 22 4 l 358 0 l 358 31 q 260 68 278 33 q 281 162 243 104 l 431 376 l 572 151 q 598 67 606 101 q 492 31 590 33 l 492 0 l 953 0 l 953 31 q 894 55 918 32 q 850 112 870 77 l 575 543 "},"Y":{"ha":878,"x_min":-23,"x_max":903,"o":"m 550 414 l 791 809 q 844 874 814 848 q 903 901 873 900 l 903 934 l 608 934 l 608 901 q 708 865 680 899 q 703 776 735 831 l 511 459 l 339 795 q 327 877 309 853 q 425 901 345 901 l 425 934 l -23 934 l -23 901 q 38 877 11 901 q 89 806 64 852 l 330 365 l 330 142 q 297 57 330 83 q 208 31 265 31 l 208 0 l 672 0 l 672 31 q 582 54 614 30 q 550 142 551 79 l 550 414 "},"Z":{"ha":911,"x_min":41,"x_max":869,"o":"m 833 906 l 833 934 l 117 934 l 92 651 l 125 651 q 215 818 151 753 q 416 884 278 882 l 570 884 l 41 23 l 41 0 l 836 0 l 869 334 l 836 334 q 719 124 795 193 q 469 56 643 56 l 311 56 l 833 906 "},"[":{"ha":595,"x_min":200,"x_max":522,"o":"m 347 -75 l 347 795 q 370 878 342 863 q 522 890 398 892 l 522 934 l 200 934 l 200 -205 l 522 -205 l 522 -161 q 369 -151 397 -163 q 347 -75 342 -138 "},"\\":{"ha":370,"x_min":-1,"x_max":383,"o":"m 383 -127 l 72 956 l -1 956 l 309 -127 l 383 -127 "},"]":{"ha":595,"x_min":69,"x_max":392,"o":"m 244 795 l 244 -75 q 222 -151 250 -138 q 69 -161 195 -163 l 69 -205 l 392 -205 l 392 934 l 69 934 l 69 890 q 221 878 193 892 q 244 795 250 863 "},"^":{"ha":1383,"x_min":278,"x_max":1100,"o":"m 770 981 l 608 981 l 278 604 l 353 604 l 689 854 l 1022 604 l 1100 604 l 770 981 "},"_":{"ha":692,"x_min":0,"x_max":689,"o":"m 0 -328 l 689 -328 l 689 -192 l 0 -192 l 0 -328 "},"‘":{"ha":345,"x_min":47,"x_max":289,"o":"m 269 956 q 111 826 172 901 q 47 651 50 752 q 80 535 47 582 q 175 487 113 489 q 261 524 233 489 q 289 604 289 558 q 264 683 288 654 q 197 712 239 711 q 176 712 182 712 q 158 709 170 711 q 144 718 150 710 q 139 734 139 725 q 188 840 142 792 q 286 923 233 887 l 269 956 "},"a":{"ha":708,"x_min":39,"x_max":677,"o":"m 411 507 l 411 387 q 143 285 244 345 q 39 132 41 226 q 82 18 40 53 q 189 -17 125 -17 q 313 9 258 -15 q 411 67 368 33 q 449 2 418 20 q 522 -17 479 -17 q 608 1 568 -16 q 677 56 648 19 l 659 81 q 645 69 649 71 q 631 67 642 66 q 607 75 611 66 q 603 106 602 84 l 603 456 q 535 603 603 554 q 328 651 467 651 q 135 604 205 650 q 64 475 65 557 q 89 413 64 434 q 155 393 113 393 q 224 418 201 393 q 248 479 248 442 q 228 524 245 510 q 205 556 210 537 q 228 593 205 579 q 297 606 250 606 q 385 576 359 605 q 411 507 412 547 m 306 64 q 252 94 269 66 q 236 162 236 123 q 277 279 235 234 q 411 348 318 323 l 411 128 q 363 84 393 102 q 306 64 334 65 "},"b":{"ha":742,"x_min":20,"x_max":697,"o":"m 220 62 q 280 11 237 37 q 397 -17 323 -14 q 591 65 493 -18 q 697 328 690 149 q 634 554 696 461 q 456 651 571 647 q 352 626 395 650 q 283 570 309 602 l 283 934 l 20 934 l 20 903 q 75 879 60 903 q 89 817 90 856 l 89 -20 l 109 -20 l 220 62 m 283 162 l 283 487 q 309 544 284 516 q 375 573 334 571 q 469 515 437 574 q 500 317 500 455 q 472 102 500 175 q 375 28 443 28 q 295 75 309 32 q 283 162 281 117 "},"c":{"ha":606,"x_min":39,"x_max":583,"o":"m 414 76 q 274 168 320 81 q 228 365 228 256 q 258 549 227 489 q 355 609 289 609 q 393 593 380 608 q 406 565 406 578 q 406 533 406 556 q 406 500 406 509 q 423 445 405 469 q 486 420 441 422 q 548 442 526 420 q 570 509 570 464 q 520 604 570 560 q 358 651 470 648 q 127 552 214 648 q 39 300 41 456 q 123 71 42 155 q 319 -17 203 -14 q 475 21 410 -16 q 583 120 540 58 l 558 145 q 500 97 532 117 q 414 76 467 77 "},"d":{"ha":761,"x_min":36,"x_max":725,"o":"m 236 323 q 261 505 235 435 q 361 576 288 574 q 430 549 400 574 q 461 490 460 524 l 461 162 q 428 96 460 133 q 350 56 395 60 q 259 129 283 58 q 236 323 235 201 m 461 -17 q 582 11 514 -1 q 722 26 649 23 q 723 42 724 29 q 722 56 722 55 q 669 81 684 62 q 656 140 655 100 l 656 934 l 364 934 l 364 903 q 440 883 418 904 q 461 817 462 863 l 461 573 q 391 631 433 611 q 297 651 348 651 q 106 546 175 646 q 36 304 37 446 q 110 70 39 154 q 278 -17 180 -15 q 389 11 347 -16 q 461 79 431 38 l 461 -17 "},"e":{"ha":619,"x_min":39,"x_max":583,"o":"m 583 151 l 553 176 q 488 111 522 134 q 416 87 454 87 q 272 165 311 90 q 236 342 234 241 l 583 342 q 517 563 583 478 q 330 651 452 648 q 113 549 186 647 q 39 307 39 452 q 105 90 38 190 q 314 -17 173 -10 q 485 36 420 -14 q 583 151 549 85 m 236 393 q 248 533 233 463 q 330 609 262 604 q 406 550 392 608 q 416 393 419 492 l 236 393 "},"f":{"ha":441,"x_min":31,"x_max":539,"o":"m 367 954 q 174 892 239 953 q 109 720 109 831 l 109 634 l 33 634 l 33 568 l 109 568 l 109 128 q 95 54 110 80 q 31 28 79 28 l 31 0 l 408 0 l 408 28 q 321 51 342 28 q 302 128 300 75 l 302 568 l 416 568 l 416 634 l 302 634 l 302 806 q 316 885 302 859 q 370 912 331 912 q 399 905 390 912 q 408 887 408 897 q 393 857 406 872 q 378 804 380 842 q 403 747 378 766 q 464 728 427 728 q 517 751 496 729 q 539 812 538 774 q 491 915 538 877 q 367 954 445 953 "},"g":{"ha":675,"x_min":28,"x_max":650,"o":"m 328 -241 q 199 -217 249 -241 q 147 -147 149 -194 q 161 -101 147 -120 q 203 -69 176 -83 l 441 -69 q 511 -84 482 -68 q 542 -134 541 -100 q 496 -211 544 -182 q 328 -241 449 -240 m 205 148 q 222 184 206 169 q 264 209 238 199 l 358 209 q 528 265 460 210 q 597 414 595 319 q 584 489 597 456 q 545 551 570 522 l 650 551 l 650 623 l 475 623 q 408 643 441 635 q 319 651 374 651 q 125 592 202 650 q 45 429 47 534 q 90 300 46 351 q 208 223 134 248 q 96 154 142 195 q 47 59 50 113 q 72 -7 47 18 q 142 -53 96 -32 q 66 -84 102 -60 q 28 -158 31 -109 q 104 -255 30 -222 q 297 -289 178 -288 q 544 -240 445 -290 q 647 -72 643 -191 q 588 53 647 12 q 416 95 530 95 l 317 95 q 231 104 257 94 q 205 148 205 114 m 322 609 q 395 559 377 608 q 411 420 412 511 q 388 291 410 331 q 325 251 365 250 q 256 291 279 250 q 233 423 233 332 q 251 560 232 511 q 322 609 269 608 "},"h":{"ha":783,"x_min":36,"x_max":745,"o":"m 677 465 q 632 598 677 547 q 500 651 587 650 q 390 624 436 651 q 302 545 343 597 l 302 934 l 39 934 l 39 903 q 94 881 78 903 q 109 823 109 859 l 109 98 q 91 48 109 66 q 36 28 73 29 l 36 0 l 370 0 l 370 28 q 317 48 332 29 q 302 98 302 68 l 302 484 q 361 538 335 519 q 416 556 387 556 q 474 520 463 555 q 484 437 486 486 l 484 104 q 469 50 484 70 q 416 28 454 29 l 416 0 l 745 0 l 745 28 q 693 48 709 29 q 677 101 677 67 l 677 465 "},"i":{"ha":408,"x_min":36,"x_max":370,"o":"m 109 531 l 109 92 q 90 48 109 66 q 36 28 72 29 l 36 0 l 370 0 l 370 28 q 318 48 334 29 q 302 92 302 66 l 302 634 l 41 634 l 41 604 q 94 585 79 604 q 109 531 109 567 m 103 850 q 124 780 102 814 q 205 743 146 745 q 288 778 265 745 q 309 848 310 810 q 281 916 308 885 q 205 948 254 946 q 131 916 157 946 q 103 850 104 886 "},"j":{"ha":431,"x_min":-112,"x_max":325,"o":"m 114 857 q 136 783 113 815 q 214 748 159 750 q 295 783 270 750 q 319 857 320 815 q 290 924 319 897 q 214 954 260 952 q 141 924 168 952 q 114 857 115 897 m 325 -58 l 325 634 l 45 634 l 45 604 q 112 582 92 603 q 131 526 132 560 l 131 -150 q 114 -216 131 -190 q 61 -244 96 -243 q 30 -235 40 -243 q 20 -214 20 -226 q 35 -181 22 -197 q 50 -127 48 -165 q 27 -78 50 -97 q -34 -58 5 -58 q -92 -82 -73 -58 q -112 -144 -111 -106 q -61 -246 -111 -205 q 75 -289 -11 -287 q 262 -225 200 -287 q 325 -58 325 -163 "},"k":{"ha":739,"x_min":36,"x_max":772,"o":"m 689 98 l 458 426 l 561 528 q 626 581 590 559 q 708 604 663 603 l 708 634 l 422 634 l 422 604 q 502 576 490 602 q 481 517 513 550 l 302 342 l 302 934 l 41 934 q 41 918 41 930 q 41 903 41 905 q 95 885 80 903 q 109 831 109 867 l 109 117 q 96 56 110 81 q 36 31 82 32 l 36 0 l 370 0 l 370 31 q 312 58 323 33 q 302 112 300 83 l 302 273 l 334 300 l 475 104 q 494 55 496 77 q 436 31 492 33 l 436 0 l 772 0 l 772 31 q 728 50 746 32 q 689 98 709 68 "},"l":{"ha":408,"x_min":36,"x_max":370,"o":"m 302 101 l 302 934 l 39 934 l 39 903 q 96 884 81 903 q 109 829 110 864 l 109 101 q 89 46 109 64 q 36 28 70 28 l 36 0 l 370 0 q 370 14 370 2 q 370 28 370 26 q 318 47 334 28 q 302 101 302 65 "},"m":{"ha":1147,"x_min":36,"x_max":1108,"o":"m 736 28 q 684 49 699 29 q 669 101 669 69 l 669 484 q 720 536 694 517 q 778 556 747 555 q 839 524 826 555 q 850 448 852 493 l 850 101 q 836 51 850 73 q 783 28 821 30 l 783 0 l 1108 0 q 1108 16 1108 4 q 1108 28 1108 27 q 1058 49 1074 29 q 1042 101 1042 69 l 1042 465 q 1003 591 1043 534 q 869 651 964 648 q 753 620 803 650 q 664 537 703 589 q 612 614 654 578 q 494 651 571 649 q 385 621 429 650 q 300 540 340 592 l 300 634 l 39 634 l 39 604 q 91 583 74 603 q 109 528 109 562 l 109 109 q 94 51 109 73 q 36 28 79 29 l 36 0 l 364 0 q 364 16 364 4 q 364 28 364 27 q 314 50 329 29 q 300 109 299 71 l 300 481 q 349 536 324 517 q 411 556 374 556 q 471 521 459 554 q 481 448 483 488 l 481 101 q 467 51 481 73 q 414 28 452 30 l 414 0 l 736 0 q 736 16 736 4 q 736 28 736 27 "},"n":{"ha":783,"x_min":33,"x_max":745,"o":"m 302 104 l 302 481 q 353 535 327 515 q 416 556 380 555 q 475 519 465 555 q 484 431 486 483 l 484 106 q 470 52 484 74 q 416 28 455 29 l 416 0 l 745 0 q 745 14 745 2 q 745 28 745 26 q 691 50 706 29 q 677 104 677 71 l 677 454 q 638 593 679 537 q 500 651 597 649 q 385 621 429 650 q 302 545 340 592 l 302 634 l 39 634 l 39 604 q 94 578 79 603 q 109 515 109 553 l 109 104 q 92 48 109 68 q 33 28 75 28 l 33 0 l 370 0 q 370 14 370 2 q 370 28 370 26 q 316 50 331 29 q 302 104 302 71 "},"o":{"ha":694,"x_min":39,"x_max":650,"o":"m 345 -17 q 565 77 482 -12 q 650 284 648 165 l 650 345 q 562 556 647 466 q 347 651 477 646 q 130 559 217 648 q 39 331 42 470 l 39 290 q 124 74 41 161 q 345 -17 207 -13 m 236 309 q 257 539 235 470 q 345 606 279 608 q 432 540 410 608 q 453 320 454 473 q 434 95 455 167 q 347 23 412 22 q 258 85 282 20 q 236 309 235 149 "},"p":{"ha":766,"x_min":36,"x_max":722,"o":"m 302 -155 l 302 67 q 371 8 328 31 q 472 -17 414 -16 q 661 92 599 -9 q 722 309 722 193 l 722 345 q 656 558 721 470 q 478 651 592 647 q 370 620 416 650 q 292 537 325 589 l 292 634 l 39 634 q 39 617 39 629 q 39 604 39 605 q 100 573 89 602 q 109 507 111 543 l 109 -155 q 99 -222 111 -192 q 36 -256 88 -253 q 36 -273 36 -259 q 36 -286 36 -288 l 408 -286 q 408 -269 408 -282 q 408 -256 408 -256 q 331 -233 358 -256 q 302 -155 303 -210 m 302 481 q 347 543 321 516 q 414 570 372 569 q 505 496 483 565 q 525 359 527 427 l 525 292 q 497 122 526 186 q 403 56 469 58 q 331 91 358 58 q 302 162 303 124 l 302 481 "},"q":{"ha":750,"x_min":39,"x_max":728,"o":"m 375 604 q 439 573 417 602 q 461 507 461 543 l 461 162 q 436 91 461 121 q 361 59 411 60 q 267 118 297 59 q 236 292 236 178 l 236 351 q 264 528 234 456 q 375 604 294 601 m 292 -17 q 396 9 349 -15 q 461 64 443 34 l 461 -155 q 442 -233 463 -210 q 355 -256 420 -256 q 355 -269 355 -256 q 355 -286 355 -282 l 728 -286 q 728 -273 728 -288 q 728 -256 728 -259 q 665 -222 676 -253 q 656 -155 654 -192 l 656 654 l 639 654 l 525 576 q 453 627 498 604 q 342 651 408 650 q 125 550 208 646 q 39 328 41 454 l 39 279 q 102 76 39 163 q 292 -17 165 -12 "},"r":{"ha":591,"x_min":36,"x_max":595,"o":"m 302 376 q 322 479 302 431 q 386 531 342 528 q 435 494 423 526 q 509 456 446 461 q 570 478 547 456 q 595 543 594 500 q 568 618 595 587 q 486 651 542 650 q 374 608 422 649 q 297 512 327 568 l 297 634 l 41 634 l 41 604 q 94 586 79 604 q 109 528 109 568 l 109 109 q 89 45 109 62 q 36 28 70 28 l 36 0 l 403 0 l 403 28 q 327 46 351 28 q 302 109 302 64 l 302 376 "},"s":{"ha":595,"x_min":75,"x_max":528,"o":"m 75 212 l 75 -17 l 103 -17 q 122 7 110 -3 q 147 18 134 17 q 211 1 181 16 q 306 -17 240 -14 q 472 41 416 -15 q 528 193 528 97 q 478 328 525 281 q 370 400 431 374 q 262 453 309 426 q 214 531 215 480 q 239 585 214 564 q 306 606 264 606 q 416 554 374 603 q 469 454 457 505 l 500 454 l 500 651 l 475 651 q 457 630 469 636 q 433 623 446 623 q 380 637 409 625 q 289 651 351 649 q 132 591 188 649 q 75 445 76 532 q 124 330 77 373 q 235 258 172 287 q 347 199 298 230 q 397 117 395 168 q 366 51 396 73 q 289 28 336 28 q 171 85 219 31 q 109 212 123 138 l 75 212 "},"t":{"ha":469,"x_min":41,"x_max":456,"o":"m 345 81 q 305 102 316 82 q 294 156 294 122 l 294 573 l 425 573 l 425 634 l 294 634 l 294 867 l 264 867 q 158 732 216 793 q 41 614 100 670 l 41 573 l 100 573 l 100 128 q 139 20 100 56 q 256 -17 178 -16 q 385 31 336 -14 q 456 134 433 75 l 425 151 q 392 103 411 124 q 345 81 373 83 "},"u":{"ha":770,"x_min":22,"x_max":736,"o":"m 94 507 l 94 145 q 138 32 95 79 q 264 -17 182 -14 q 384 11 331 -15 q 469 76 437 37 l 469 -17 q 610 13 536 1 q 736 26 684 25 l 736 56 q 678 77 693 57 q 664 132 663 98 l 664 634 l 392 634 q 392 616 392 630 q 392 601 392 603 q 453 582 437 602 q 469 509 470 562 l 469 137 q 425 90 452 109 q 361 70 398 71 q 303 99 318 71 q 289 168 288 127 l 289 634 l 22 634 q 22 616 22 630 q 22 601 22 603 q 80 580 65 602 q 94 507 95 558 "},"v":{"ha":631,"x_min":-3,"x_max":625,"o":"m 486 520 l 378 248 l 275 520 q 266 584 257 564 q 334 604 275 604 l 334 634 l -3 634 l -3 604 q 44 579 27 603 q 72 520 60 555 l 289 -17 l 325 -17 l 545 520 q 576 579 557 555 q 625 604 596 603 q 625 617 625 604 q 625 634 625 630 l 414 634 l 414 606 q 487 585 473 606 q 486 520 502 564 "},"w":{"ha":895,"x_min":-20,"x_max":914,"o":"m 433 487 l 345 256 l 241 526 q 236 582 230 558 q 286 606 242 605 l 286 634 l -20 634 l -20 606 q 12 584 -4 605 q 36 540 27 562 l 250 -17 l 286 -17 l 456 401 l 595 -17 l 623 -17 l 850 537 q 878 586 861 567 q 914 606 895 606 l 914 634 l 728 634 l 728 606 q 785 589 765 606 q 791 537 805 572 l 689 284 l 611 528 q 611 584 600 563 q 664 606 621 606 l 664 634 l 347 634 l 347 606 q 391 592 374 606 q 411 556 407 578 l 433 487 "},"x":{"ha":659,"x_min":8,"x_max":656,"o":"m 378 417 l 306 531 q 290 583 287 563 q 347 604 293 603 l 347 634 l 8 634 q 8 617 8 629 q 8 604 8 605 q 46 589 25 604 q 86 543 67 574 l 256 279 l 134 120 q 69 54 102 79 q 11 28 37 29 l 11 0 l 239 0 l 239 28 q 173 56 177 31 q 189 106 170 81 l 283 234 l 367 104 q 382 53 386 77 q 322 28 378 30 l 322 0 l 656 0 l 656 28 q 607 63 633 31 q 561 128 582 95 l 406 373 l 519 517 q 575 575 543 548 q 639 604 607 602 l 639 634 l 411 634 l 411 604 q 483 582 475 603 q 467 531 490 562 l 378 417 "},"y":{"ha":616,"x_min":-12,"x_max":614,"o":"m 69 526 l 289 -14 q 264 -87 279 -51 q 233 -153 250 -123 q 210 -188 224 -174 q 170 -203 196 -201 q 152 -192 155 -201 q 150 -158 149 -184 q 134 -104 151 -125 q 75 -83 118 -83 q 11 -110 33 -83 q -12 -180 -11 -136 q 19 -258 -11 -229 q 109 -289 50 -288 q 215 -255 166 -291 q 309 -111 263 -220 l 539 515 q 567 574 549 546 q 614 604 585 602 l 614 634 l 416 634 l 416 604 q 487 574 479 602 q 481 512 496 547 l 380 239 l 275 512 q 261 576 257 550 q 334 604 266 602 l 334 634 l -6 634 l -6 604 q 40 584 24 604 q 69 526 56 565 "},"z":{"ha":603,"x_min":28,"x_max":567,"o":"m 89 442 q 146 554 107 519 q 253 589 185 590 l 347 589 l 28 26 l 28 0 l 550 0 q 559 109 556 37 q 567 218 563 180 l 533 218 q 460 86 504 128 q 309 45 417 45 l 256 45 l 564 595 l 564 634 l 64 634 l 56 442 l 89 442 "},"{":{"ha":692,"x_min":119,"x_max":572,"o":"m 261 426 q 392 500 352 449 q 431 651 431 551 l 431 840 q 464 943 430 908 q 572 979 498 979 l 572 1017 q 364 973 429 1019 q 300 806 299 927 l 300 640 q 260 501 301 545 q 119 454 218 457 l 119 401 q 261 352 220 397 q 300 220 301 308 l 300 34 q 363 -120 298 -75 q 572 -164 428 -165 l 572 -125 q 466 -93 502 -125 q 431 15 431 -61 l 431 190 q 393 356 432 302 q 261 426 353 409 "},"|":{"ha":692,"x_min":275,"x_max":414,"o":"m 414 1050 l 275 1050 l 275 -328 l 414 -328 l 414 1050 "},"}":{"ha":692,"x_min":117,"x_max":570,"o":"m 258 190 l 258 15 q 223 -91 258 -58 q 117 -125 187 -125 l 117 -164 q 326 -119 261 -165 q 389 34 390 -73 l 389 223 q 428 353 387 309 q 570 401 469 397 l 570 454 q 429 503 471 458 q 389 640 387 549 l 389 806 q 325 973 389 927 q 117 1017 260 1019 l 117 979 q 225 943 191 979 q 258 840 259 908 l 258 651 q 298 498 258 550 q 428 426 339 446 q 300 358 341 412 q 258 190 258 303 "},"~":{"ha":1383,"x_min":278,"x_max":1103,"o":"m 278 712 l 325 687 q 399 755 359 734 q 492 776 438 777 q 572 763 528 776 q 667 735 616 751 q 769 706 718 719 q 872 692 821 694 q 1009 735 945 692 q 1103 873 1074 778 l 1059 898 q 986 831 1025 850 q 900 812 946 811 q 818 826 863 813 q 722 854 772 838 q 621 883 672 870 q 519 895 570 895 q 376 851 437 896 q 278 712 314 807 "},"≈":{"ha":1153,"x_min":119,"x_max":1031,"o":"m 389 662 q 253 636 321 661 q 119 568 184 612 l 119 420 q 241 494 180 463 q 383 526 302 524 q 488 512 437 526 q 586 482 538 499 q 681 451 633 465 q 778 437 728 438 q 921 467 857 439 q 1031 528 985 496 l 1031 675 q 904 599 964 625 q 783 573 844 573 q 685 588 732 574 q 591 618 637 601 q 495 649 545 635 q 389 662 446 662 m 389 384 q 253 358 321 383 q 119 290 184 334 l 119 142 q 241 216 180 186 q 383 248 302 247 q 488 235 437 248 q 586 204 538 222 q 681 174 633 186 q 778 159 728 161 q 921 190 857 161 q 1031 251 985 218 l 1031 398 q 904 321 964 348 q 783 295 844 295 q 685 310 732 296 q 591 340 637 323 q 495 371 545 357 q 389 384 446 384 "},"√":{"ha":911,"x_min":50,"x_max":908,"o":"m 272 667 l 50 592 l 72 515 l 164 551 l 375 -28 l 441 -28 l 839 1053 l 908 1053 l 908 1139 l 772 1139 l 431 220 l 272 667 "},"²":{"ha":456,"x_min":11,"x_max":419,"o":"m 142 481 q 206 545 167 511 q 287 617 245 578 q 356 701 328 656 q 386 795 385 745 q 340 904 385 867 q 222 943 296 942 q 96 892 150 940 q 25 779 41 844 l 47 779 q 91 834 64 814 q 158 854 119 854 q 233 824 203 853 q 264 751 262 795 q 239 660 262 705 q 177 571 215 616 q 95 483 139 527 q 11 395 52 439 l 11 373 l 383 373 l 419 551 l 400 551 q 357 494 387 508 q 292 481 328 480 l 142 481 "},"³":{"ha":456,"x_min":3,"x_max":406,"o":"m 39 809 q 90 858 60 839 q 153 878 119 878 q 215 856 193 878 q 239 795 238 833 q 205 721 237 743 q 127 687 173 699 l 127 670 q 251 614 199 659 q 306 507 303 570 q 281 436 305 467 q 220 404 258 406 q 146 447 174 409 q 61 490 119 484 q 17 477 32 490 q 3 442 3 465 q 41 382 4 402 q 136 362 79 362 q 328 427 253 365 q 406 584 403 490 q 373 677 404 639 q 297 728 342 715 q 350 768 328 743 q 372 840 372 794 q 329 916 371 890 q 225 943 288 943 q 98 903 149 941 q 20 820 48 866 l 39 809 "},"ı":{"ha":408,"x_min":36,"x_max":370,"o":"m 109 531 l 109 92 q 90 48 109 66 q 36 28 72 29 l 36 0 l 370 0 l 370 28 q 318 48 334 29 q 302 92 302 66 l 302 634 l 41 634 l 41 604 q 94 585 79 604 q 109 531 109 567 "},"®":{"ha":1136,"x_min":75,"x_max":1067,"o":"m 614 462 q 740 502 684 474 q 800 601 797 530 q 745 700 798 664 q 611 736 692 736 l 314 736 l 314 703 q 373 682 359 702 q 386 642 387 663 l 386 292 q 368 238 386 256 q 314 220 349 220 l 314 190 l 578 190 l 578 220 q 535 233 557 219 q 511 292 513 246 l 511 454 l 545 454 q 641 301 656 412 q 753 176 627 190 q 852 218 829 178 q 872 312 875 259 l 842 312 q 835 259 843 290 q 798 226 827 229 q 760 327 759 237 q 614 462 761 418 m 75 454 q 227 101 82 233 q 572 -36 372 -32 q 918 111 777 -29 q 1061 454 1059 250 q 917 804 1057 665 q 564 948 777 943 q 213 794 346 941 q 75 454 79 648 m 144 456 q 263 748 148 625 q 567 878 378 872 q 873 752 758 873 q 991 456 988 631 q 864 154 986 275 q 567 28 743 33 q 286 138 418 29 q 144 456 153 248 m 570 706 q 647 673 621 705 q 672 601 672 642 q 637 514 670 544 q 570 484 605 484 l 511 484 l 511 665 q 528 696 512 686 q 570 706 544 706 "},"©":{"ha":1136,"x_min":75,"x_max":1067,"o":"m 75 454 q 227 101 82 233 q 572 -36 372 -32 q 918 111 777 -29 q 1061 454 1059 250 q 917 804 1057 665 q 564 948 777 943 q 213 794 346 941 q 75 454 79 648 m 144 456 q 263 748 148 625 q 567 878 378 872 q 873 752 758 873 q 991 456 988 631 q 864 154 986 275 q 567 28 743 33 q 286 138 418 29 q 144 456 153 248 m 278 451 q 365 240 282 318 q 564 159 448 161 q 712 202 656 161 q 803 304 768 243 l 772 323 q 692 235 736 267 q 586 203 648 204 q 463 275 503 205 q 422 454 422 345 q 452 625 420 548 q 572 706 483 701 q 705 643 667 702 q 761 523 743 584 l 791 523 l 791 740 l 761 740 q 750 710 759 722 q 722 698 741 699 q 668 720 701 701 q 567 743 634 740 q 364 662 446 741 q 278 451 281 584 "},"†":{"ha":692,"x_min":56,"x_max":639,"o":"m 56 623 q 75 571 56 591 q 131 551 95 551 q 220 580 178 554 q 328 609 261 606 q 294 439 323 499 q 258 362 264 380 q 292 217 262 327 q 325 -211 321 108 l 367 -211 q 399 221 371 110 q 431 362 427 332 q 396 436 427 379 q 361 609 365 494 q 459 580 417 606 q 555 551 502 554 q 610 568 585 551 q 636 620 636 585 q 614 676 635 654 q 558 698 593 697 q 474 670 511 694 q 361 642 438 646 q 392 797 365 756 q 422 884 418 837 q 409 931 424 907 q 345 956 393 954 q 285 931 302 954 q 269 884 269 907 q 298 797 273 837 q 328 642 324 756 q 227 670 262 646 q 136 698 191 694 q 80 678 104 698 q 56 623 57 659 "},"™":{"ha":1136,"x_min":153,"x_max":961,"o":"m 153 848 l 172 848 q 208 932 180 912 q 269 951 235 953 l 269 665 q 261 640 270 650 q 225 629 252 629 l 225 609 l 400 609 l 400 629 q 364 640 374 629 q 355 665 355 650 l 355 951 q 415 932 388 953 q 450 848 443 912 l 469 848 l 461 976 l 161 976 l 153 848 m 511 976 l 511 956 q 544 948 531 956 q 558 923 557 940 l 558 665 q 549 640 559 650 q 511 629 540 629 l 511 609 l 642 609 l 642 629 q 601 640 611 629 q 591 665 591 650 l 591 920 l 705 609 l 730 609 l 839 920 l 839 665 q 822 633 838 639 q 794 629 806 627 l 794 609 l 961 609 l 961 629 q 935 633 949 627 q 920 665 921 639 l 920 923 q 928 948 919 938 q 961 959 937 958 l 961 976 l 831 976 l 742 723 l 650 976 l 511 976 "},"¦":{"ha":692,"x_min":275,"x_max":414,"o":"m 275 962 l 275 454 l 414 454 l 414 962 l 275 962 m 275 273 l 275 -236 l 414 -236 l 414 273 l 275 273 "},"¸":{"ha":692,"x_min":175,"x_max":536,"o":"m 364 -248 q 282 -229 323 -245 q 205 -197 240 -212 l 175 -256 q 270 -289 214 -271 q 383 -309 326 -307 q 495 -281 455 -309 q 536 -192 536 -253 q 503 -106 536 -136 q 414 -75 469 -75 l 367 -81 l 367 -3 l 322 -3 l 322 -134 l 364 -131 q 414 -144 397 -130 q 431 -189 431 -157 q 413 -230 431 -214 q 364 -248 395 -246 "},"¹":{"ha":458,"x_min":56,"x_max":408,"o":"m 56 373 l 408 373 l 408 389 q 322 407 347 389 q 300 470 298 425 l 300 943 l 283 943 l 61 854 l 61 837 q 103 848 84 843 q 131 854 122 854 q 157 843 149 854 q 164 806 164 831 l 164 470 q 141 407 165 425 q 56 389 117 389 l 56 373 "},"×":{"ha":1153,"x_min":186,"x_max":981,"o":"m 278 806 l 186 715 l 492 409 l 186 104 l 278 12 l 583 317 l 889 12 l 981 104 l 675 409 l 981 715 l 889 806 l 583 500 l 278 806 "},"'":{"ha":248,"x_min":56,"x_max":195,"o":"m 56 912 q 79 759 58 873 q 111 573 100 646 l 139 573 q 172 763 151 650 q 195 912 193 877 q 178 964 195 945 q 127 984 161 983 q 75 964 94 983 q 56 912 56 945 "},"‰":{"ha":1614,"x_min":22,"x_max":1581,"o":"m 925 454 q 983 426 963 453 q 1003 359 1003 399 q 939 152 999 247 q 806 51 878 57 q 758 73 776 52 q 739 125 740 94 q 797 326 742 210 q 925 454 852 442 m 553 857 q 446 897 476 861 q 325 937 416 932 q 109 822 193 932 q 22 556 25 711 q 70 456 24 503 q 183 406 115 410 q 417 543 345 418 q 489 768 490 669 l 486 817 q 520 811 503 813 q 555 809 536 809 q 639 819 597 809 q 714 848 680 829 l 233 -20 l 302 -20 l 847 948 l 791 948 q 675 882 743 906 q 553 857 608 857 m 1050 353 q 1010 473 1050 428 q 892 520 970 519 q 671 410 758 514 q 581 176 584 305 q 626 45 581 100 q 761 -14 671 -10 q 975 119 901 -3 q 1050 353 1049 241 m 175 548 q 242 749 180 636 q 358 873 304 862 q 383 860 372 872 q 433 837 394 848 q 439 803 437 820 q 441 770 441 787 q 385 586 440 690 q 241 473 330 482 q 197 489 217 472 q 175 548 176 507 m 1270 125 q 1327 326 1272 210 q 1455 454 1382 442 q 1513 426 1493 453 q 1533 359 1533 399 q 1469 152 1529 247 q 1336 51 1409 57 q 1288 73 1306 52 q 1270 125 1270 94 m 1111 176 q 1157 45 1111 100 q 1292 -14 1202 -10 q 1506 119 1432 -3 q 1581 353 1580 241 q 1541 473 1581 428 q 1422 520 1501 519 q 1201 410 1288 514 q 1111 176 1114 305 "},"Œ":{"ha":1425,"x_min":56,"x_max":1397,"o":"m 56 473 q 212 95 66 210 q 509 -20 358 -21 q 627 -9 570 -18 q 705 0 684 -1 l 1341 0 l 1397 292 q 1380 293 1390 291 q 1361 290 1370 295 q 1229 107 1317 167 q 1017 48 1141 48 l 975 48 q 905 65 924 47 q 886 125 886 82 l 886 456 q 1053 406 1011 457 q 1105 242 1095 354 q 1125 242 1112 242 q 1141 242 1139 242 l 1141 706 l 1108 706 q 1048 547 1087 595 q 886 500 1010 499 l 886 817 q 904 870 884 856 q 966 884 923 885 l 1034 884 q 1220 833 1152 886 q 1305 656 1289 780 l 1333 656 l 1333 934 l 730 934 q 647 945 705 935 q 525 956 588 955 q 175 796 293 946 q 56 473 56 646 m 681 214 q 649 81 682 127 q 533 34 615 35 q 345 146 403 35 q 289 462 288 256 q 342 770 286 642 q 542 903 398 898 q 643 872 606 904 q 681 764 680 841 l 681 214 "},"œ":{"ha":991,"x_min":39,"x_max":956,"o":"m 39 309 q 133 65 43 146 q 339 -17 222 -16 q 458 4 416 -15 q 528 48 500 24 q 590 5 553 22 q 689 -14 626 -12 q 853 35 796 -11 q 956 148 911 81 l 928 173 q 859 113 898 140 q 761 84 821 85 q 657 130 699 83 q 614 281 616 176 l 614 342 l 953 342 l 953 384 q 879 578 950 507 q 700 651 808 650 q 593 630 635 650 q 517 584 551 610 q 445 632 486 614 q 345 651 404 650 q 130 565 218 651 q 39 309 43 478 m 334 612 q 411 547 387 610 q 433 373 434 484 l 433 256 q 414 91 435 154 q 334 26 394 28 q 256 90 277 29 q 236 234 235 151 l 236 393 q 258 556 235 501 q 334 612 281 612 m 616 393 l 616 487 q 641 571 617 534 q 705 609 665 607 q 777 570 755 607 q 798 487 798 533 l 798 393 l 616 393 "},"—":{"ha":1383,"x_min":0,"x_max":1381,"o":"m 0 378 l 0 254 l 1381 254 l 1381 378 l 0 378 "},"–":{"ha":692,"x_min":0,"x_max":689,"o":"m 0 378 l 0 254 l 689 254 l 689 378 l 0 378 "},"…":{"ha":1378,"x_min":117,"x_max":1261,"o":"m 117 92 q 150 9 118 37 q 228 -20 181 -19 q 308 9 275 -19 q 342 92 340 38 q 313 176 342 144 q 231 209 285 208 q 144 171 172 207 q 117 92 117 134 m 575 92 q 608 9 576 37 q 686 -20 640 -19 q 766 9 734 -19 q 800 92 799 38 q 772 176 800 144 q 689 209 743 208 q 603 171 631 207 q 575 92 575 134 m 1036 92 q 1069 9 1038 37 q 1147 -20 1101 -19 q 1227 9 1195 -19 q 1261 92 1260 38 q 1233 176 1261 144 q 1150 209 1204 208 q 1064 171 1092 207 q 1036 92 1036 134 "},"‡":{"ha":692,"x_min":50,"x_max":639,"o":"m 136 698 q 80 678 104 698 q 56 623 57 659 q 75 571 56 591 q 131 551 95 551 q 220 580 178 554 q 328 609 261 606 q 294 440 323 499 q 258 368 264 381 q 293 293 262 350 q 328 120 323 235 q 230 149 272 123 q 134 178 187 175 q 79 161 104 178 q 53 109 53 144 q 75 54 54 75 q 131 31 97 32 q 215 59 178 35 q 328 87 251 83 q 297 -65 323 -25 q 267 -153 271 -104 q 281 -199 265 -175 q 345 -225 296 -222 q 404 -199 387 -222 q 419 -153 420 -175 q 390 -65 416 -104 q 361 87 364 -25 q 462 59 426 83 q 553 31 498 35 q 609 51 585 31 q 633 106 632 71 q 614 158 633 138 q 558 178 594 178 q 469 149 511 175 q 361 120 427 123 q 395 290 365 230 q 431 368 425 349 q 396 437 427 380 q 361 609 365 494 q 459 580 417 606 q 555 551 502 554 q 610 568 585 551 q 636 620 636 585 q 614 676 635 654 q 558 698 593 697 q 474 670 511 694 q 361 642 438 646 q 392 797 365 756 q 422 884 418 837 q 409 931 424 907 q 345 956 393 954 q 285 931 302 954 q 269 884 269 907 q 298 797 273 837 q 328 642 324 756 q 227 670 262 646 q 136 698 191 694 "},"„":{"ha":672,"x_min":47,"x_max":616,"o":"m 66 -264 q 226 -134 165 -208 q 289 39 287 -60 q 256 155 289 108 q 161 203 224 201 q 75 167 103 201 q 47 87 47 132 q 73 9 48 37 q 139 -20 97 -18 q 161 -19 155 -19 q 178 -17 167 -18 q 192 -24 186 -17 q 197 -41 197 -32 q 149 -146 195 -99 q 50 -231 103 -194 l 66 -264 m 395 -264 q 553 -134 492 -208 q 616 39 614 -60 q 584 155 616 108 q 489 203 551 201 q 403 167 431 201 q 375 87 375 132 q 400 9 376 37 q 467 -20 425 -18 q 488 -19 482 -19 q 505 -17 494 -18 q 519 -24 514 -17 q 525 -41 525 -32 q 476 -146 522 -99 q 378 -231 431 -194 l 395 -264 "},"“":{"ha":672,"x_min":50,"x_max":619,"o":"m 600 956 q 441 826 502 901 q 378 651 380 752 q 410 535 378 582 q 505 487 443 489 q 591 524 564 489 q 619 604 619 558 q 594 683 618 654 q 528 712 570 711 q 506 712 512 712 q 489 709 500 711 q 475 718 481 710 q 469 734 469 725 q 518 840 472 792 q 616 923 564 887 l 600 956 m 272 956 q 113 826 174 901 q 50 651 52 752 q 83 535 50 582 q 178 487 115 489 q 264 524 236 489 q 292 604 292 558 q 267 683 291 654 q 200 712 242 711 q 178 712 184 712 q 161 709 172 711 q 147 718 153 710 q 142 734 142 725 q 190 840 144 792 q 289 923 236 887 l 272 956 "},"”":{"ha":672,"x_min":47,"x_max":616,"o":"m 66 487 q 226 617 165 543 q 289 792 287 691 q 256 907 289 861 q 161 956 224 954 q 75 920 103 954 q 47 840 47 885 q 73 761 48 789 q 139 731 97 732 q 161 731 155 731 q 178 734 167 732 q 192 726 186 733 q 197 709 197 718 q 149 604 195 651 q 50 520 103 556 l 66 487 m 395 487 q 553 617 492 543 q 616 792 614 691 q 584 907 616 861 q 489 956 551 954 q 403 920 431 954 q 375 840 375 885 q 400 761 376 789 q 467 731 425 732 q 488 731 482 731 q 505 734 494 732 q 519 726 514 733 q 525 709 525 718 q 476 604 522 651 q 378 520 431 556 l 395 487 "},"À":{"ha":900,"x_min":-15,"x_max":911,"o":"m 519 273 l 578 125 q 567 55 594 76 q 472 34 539 33 l 472 0 l 911 0 l 911 34 q 848 62 871 35 q 806 140 825 90 l 461 956 l 425 956 q 351 773 393 878 q 262 555 309 669 q 174 336 216 441 q 100 151 131 231 q 58 71 84 105 q -15 34 31 36 l -15 0 l 261 0 q 261 14 261 1 q 261 34 261 26 q 165 63 191 35 q 161 142 140 92 l 211 273 l 519 273 m 364 659 l 497 328 l 233 328 l 364 659 m 302 1276 q 262 1257 277 1274 q 248 1220 248 1240 q 258 1185 248 1201 q 289 1156 268 1169 l 519 1034 l 581 1034 l 367 1251 q 338 1270 351 1265 q 302 1276 325 1276 "},"Â":{"ha":900,"x_min":-15,"x_max":911,"o":"m 595 1034 l 650 1034 l 500 1267 l 400 1267 l 250 1034 l 306 1034 l 450 1156 l 595 1034 m 578 125 q 567 55 594 76 q 472 34 539 33 l 472 0 l 911 0 l 911 34 q 848 62 871 35 q 806 140 825 90 l 461 956 l 425 956 q 351 773 393 878 q 262 555 309 669 q 174 336 216 441 q 100 151 131 231 q 58 71 84 105 q -15 34 31 36 l -15 0 l 261 0 q 261 14 261 1 q 261 34 261 26 q 165 63 191 35 q 161 142 140 92 l 211 273 l 519 273 l 578 125 m 364 659 l 497 328 l 233 328 l 364 659 "},"È":{"ha":911,"x_min":31,"x_max":884,"o":"m 503 887 q 704 834 629 888 q 791 656 779 780 l 819 656 l 819 934 l 33 934 l 33 903 q 126 876 99 903 q 153 798 153 848 l 153 132 q 126 57 153 85 q 31 28 98 29 l 31 0 l 828 0 l 884 290 q 865 290 876 288 q 844 287 854 292 q 713 107 800 164 q 503 51 626 50 l 461 51 q 391 71 410 51 q 372 125 372 90 l 372 456 q 539 404 497 457 q 591 239 581 351 q 611 239 597 239 q 625 239 624 239 l 625 706 l 595 706 q 534 547 573 595 q 372 500 496 499 l 372 817 q 391 869 372 851 q 453 887 410 887 l 503 887 m 522 1034 l 583 1034 l 400 1220 q 355 1259 376 1244 q 306 1276 334 1275 q 264 1257 280 1274 q 250 1217 249 1239 q 262 1180 250 1194 q 302 1151 274 1166 l 522 1034 "},"Ê":{"ha":911,"x_min":31,"x_max":884,"o":"m 503 887 q 704 834 629 888 q 791 656 779 780 l 819 656 l 819 934 l 33 934 l 33 903 q 126 876 99 903 q 153 798 153 848 l 153 132 q 126 57 153 85 q 31 28 98 29 l 31 0 l 828 0 l 884 290 q 865 290 876 288 q 844 287 854 292 q 713 107 800 164 q 503 51 626 50 l 461 51 q 391 71 410 51 q 372 125 372 90 l 372 456 q 539 404 497 457 q 591 239 581 351 q 611 239 597 239 q 625 239 624 239 l 625 706 l 595 706 q 534 547 573 595 q 372 500 496 499 l 372 817 q 391 869 372 851 q 453 887 410 887 l 503 887 m 597 1034 l 653 1034 l 503 1267 l 403 1267 l 253 1034 l 309 1034 l 453 1156 l 597 1034 "},"Ë":{"ha":911,"x_min":31,"x_max":884,"o":"m 503 887 q 704 834 629 888 q 791 656 779 780 l 819 656 l 819 934 l 33 934 l 33 903 q 126 876 99 903 q 153 798 153 848 l 153 132 q 126 57 153 85 q 31 28 98 29 l 31 0 l 828 0 l 884 290 q 865 290 876 288 q 844 287 854 292 q 713 107 800 164 q 503 51 626 50 l 461 51 q 391 71 410 51 q 372 125 372 90 l 372 456 q 539 404 497 457 q 591 239 581 351 q 611 239 597 239 q 625 239 624 239 l 625 706 l 595 706 q 534 547 573 595 q 372 500 496 499 l 372 817 q 391 869 372 851 q 453 887 410 887 l 503 887 m 248 1143 q 270 1085 248 1107 q 330 1062 292 1063 q 388 1085 368 1063 q 408 1143 408 1108 q 386 1199 408 1177 q 330 1223 365 1222 q 273 1200 296 1222 q 248 1143 249 1179 m 578 1062 q 636 1085 616 1063 q 656 1143 656 1108 q 634 1199 655 1177 q 578 1223 612 1222 q 519 1200 543 1222 q 494 1143 496 1179 q 517 1085 495 1107 q 578 1062 540 1063 "},"Î":{"ha":536,"x_min":31,"x_max":503,"o":"m 372 795 q 402 881 372 857 q 500 903 433 905 l 500 934 l 31 934 l 31 903 q 129 879 104 904 q 153 795 155 853 l 153 142 q 123 62 153 92 q 31 31 93 32 l 31 0 l 503 0 l 503 31 q 404 61 436 32 q 372 142 372 90 l 372 795 m 411 1034 l 467 1034 l 317 1267 l 216 1267 l 66 1034 l 122 1034 l 267 1156 l 411 1034 "},"Ï":{"ha":536,"x_min":31,"x_max":503,"o":"m 372 795 q 402 881 372 857 q 500 903 433 905 l 500 934 l 31 934 l 31 903 q 129 879 104 904 q 153 795 155 853 l 153 142 q 123 62 153 92 q 31 31 93 32 l 31 0 l 503 0 l 503 31 q 404 61 436 32 q 372 142 372 90 l 372 795 m 61 1143 q 84 1085 62 1107 q 144 1062 106 1063 q 202 1085 182 1063 q 222 1143 222 1108 q 200 1199 222 1177 q 144 1223 179 1222 q 86 1200 110 1222 q 61 1143 62 1179 m 392 1062 q 449 1085 429 1063 q 469 1143 469 1108 q 447 1199 469 1177 q 392 1223 426 1222 q 334 1200 357 1222 q 309 1143 310 1179 q 332 1085 309 1107 q 392 1062 354 1063 "},"´":{"ha":692,"x_min":214,"x_max":550,"o":"m 214 728 l 275 728 l 494 845 q 535 874 523 861 q 547 912 547 888 q 533 951 549 934 q 492 970 517 969 q 443 954 464 970 q 397 915 422 939 l 214 728 "},"`":{"ha":692,"x_min":139,"x_max":475,"o":"m 475 728 l 292 915 q 247 954 268 939 q 197 970 226 970 q 156 951 172 969 q 142 912 140 934 q 153 874 141 888 q 195 845 165 861 l 414 728 l 475 728 "},"ˆ":{"ha":692,"x_min":144,"x_max":545,"o":"m 545 728 l 395 962 l 294 962 l 144 728 l 200 728 l 345 850 l 489 728 l 545 728 "},"¨":{"ha":692,"x_min":139,"x_max":547,"o":"m 222 918 q 164 895 188 917 q 139 837 140 873 q 162 779 140 801 q 222 756 184 757 q 280 780 260 757 q 300 837 300 802 q 278 894 299 871 q 222 918 256 917 m 469 756 q 527 780 507 757 q 547 837 547 802 q 525 894 547 871 q 469 918 504 917 q 411 895 435 917 q 386 837 387 873 q 409 779 387 801 q 469 756 431 757 "},"˜":{"ha":692,"x_min":150,"x_max":539,"o":"m 253 809 q 327 795 290 807 q 400 781 363 783 q 497 827 461 783 q 539 945 532 871 l 497 945 q 477 905 490 922 q 436 887 465 888 q 365 903 410 892 q 286 915 320 913 q 192 868 226 913 q 150 751 159 823 l 195 751 q 212 791 200 774 q 253 809 224 808 "},"Ù":{"ha":1014,"x_min":31,"x_max":972,"o":"m 867 781 q 891 869 866 836 q 972 903 916 903 l 972 934 l 677 934 l 677 903 q 780 872 750 903 q 808 781 809 840 l 808 304 q 754 119 810 196 q 567 39 699 43 q 408 116 447 42 q 372 304 369 191 l 372 787 q 395 873 370 844 q 494 903 420 903 l 494 934 l 31 934 l 31 903 q 128 870 102 903 q 153 781 154 838 l 153 295 q 241 53 153 133 q 511 -28 330 -27 q 774 59 683 -26 q 867 304 866 144 l 867 781 m 619 1034 l 681 1034 l 497 1220 q 452 1259 473 1244 q 403 1276 431 1275 q 361 1257 377 1274 q 347 1217 346 1239 q 359 1180 347 1194 q 400 1151 371 1166 l 619 1034 "},"Û":{"ha":1014,"x_min":31,"x_max":972,"o":"m 867 781 q 891 869 866 836 q 972 903 916 903 l 972 934 l 677 934 l 677 903 q 780 872 750 903 q 808 781 809 840 l 808 304 q 754 119 810 196 q 567 39 699 43 q 408 116 447 42 q 372 304 369 191 l 372 787 q 395 873 370 844 q 494 903 420 903 l 494 934 l 31 934 l 31 903 q 128 870 102 903 q 153 781 154 838 l 153 295 q 241 53 153 133 q 511 -28 330 -27 q 774 59 683 -26 q 867 304 866 144 l 867 781 m 694 1034 l 750 1034 l 600 1267 l 500 1267 l 350 1034 l 406 1034 l 550 1156 l 694 1034 "},"¯":{"ha":692,"x_min":0,"x_max":689,"o":"m 689 915 l 689 1050 l 0 1050 l 0 915 l 689 915 "},"Ý":{"ha":878,"x_min":-26,"x_max":903,"o":"m 550 142 l 550 414 l 791 809 q 844 874 814 848 q 903 901 873 900 l 903 934 l 608 934 l 608 901 q 708 865 680 899 q 703 776 735 831 l 511 459 l 339 795 q 327 877 309 853 q 425 901 345 901 l 425 934 l -26 934 l -26 901 q 36 877 8 901 q 89 806 64 852 l 330 365 l 330 142 q 297 57 330 83 q 208 31 265 31 l 208 0 l 672 0 l 672 31 q 582 54 614 30 q 550 142 551 79 m 367 1034 l 586 1151 q 627 1180 615 1166 q 639 1217 640 1194 q 625 1257 640 1239 q 583 1276 609 1274 q 534 1259 555 1275 q 489 1220 513 1244 l 306 1034 l 367 1034 "},"ý":{"ha":616,"x_min":-12,"x_max":614,"o":"m 239 728 l 458 845 q 499 874 487 861 q 511 912 511 888 q 497 951 513 934 q 456 970 481 969 q 406 954 427 970 q 361 915 385 939 l 178 728 l 239 728 m 289 -14 q 264 -87 279 -51 q 233 -153 250 -123 q 210 -188 224 -174 q 170 -203 196 -201 q 152 -192 155 -201 q 150 -158 149 -184 q 134 -104 151 -125 q 75 -83 118 -83 q 11 -110 33 -83 q -12 -180 -11 -136 q 19 -258 -11 -229 q 109 -289 50 -288 q 215 -255 166 -291 q 309 -111 263 -220 l 539 515 q 567 574 549 546 q 614 604 585 602 l 614 634 l 416 634 l 416 604 q 487 574 479 602 q 481 512 496 547 l 380 239 l 275 512 q 261 576 257 550 q 334 604 266 602 l 334 634 l -6 634 l -6 604 q 40 584 24 604 q 69 526 56 565 l 289 -14 "},"°":{"ha":456,"x_min":22,"x_max":431,"o":"m 228 573 q 382 643 334 577 q 431 784 431 709 q 375 918 429 858 q 228 981 321 978 q 79 920 135 979 q 22 781 24 861 q 72 638 22 701 q 228 573 122 576 m 106 770 q 139 859 106 822 q 228 898 171 896 q 315 858 284 896 q 347 773 347 819 q 312 693 346 728 q 231 656 278 659 q 145 688 182 657 q 106 770 108 720 "},"Ç":{"ha":964,"x_min":56,"x_max":920,"o":"m 575 45 q 361 162 427 50 q 297 434 296 275 l 297 500 q 347 773 294 643 q 547 912 400 903 q 758 815 678 905 q 867 634 838 724 l 897 634 l 897 956 l 867 956 q 841 911 854 927 q 803 895 827 895 q 700 926 755 899 q 536 956 645 952 q 188 814 317 951 q 56 462 58 677 q 156 155 54 292 q 475 -20 257 18 l 475 -134 l 519 -131 q 567 -146 551 -130 q 583 -192 583 -161 q 567 -230 583 -213 q 519 -248 551 -246 q 432 -230 477 -245 q 355 -197 388 -214 l 330 -256 q 428 -291 375 -275 q 530 -309 481 -307 q 649 -276 610 -307 q 689 -192 689 -245 q 655 -104 688 -134 q 572 -75 623 -75 q 545 -76 559 -75 q 519 -81 530 -78 l 519 -20 q 767 41 671 -16 q 920 181 864 98 l 884 214 q 749 96 831 145 q 575 45 667 47 "},"ç":{"ha":606,"x_min":39,"x_max":581,"o":"m 570 507 q 513 610 568 570 q 361 651 458 650 q 124 547 208 647 q 39 304 40 448 q 98 100 39 193 q 281 -14 158 7 l 281 -134 l 325 -131 q 370 -145 353 -130 q 389 -189 388 -161 q 372 -230 389 -214 q 322 -248 355 -246 q 234 -229 279 -245 q 161 -197 190 -212 l 136 -256 q 227 -289 170 -271 q 336 -309 283 -307 q 458 -274 421 -307 q 494 -189 495 -241 q 461 -105 494 -136 q 372 -75 429 -75 l 325 -78 l 325 -17 q 479 24 410 -15 q 581 123 548 63 l 561 148 q 495 96 530 115 q 414 76 459 77 q 276 162 323 79 q 228 368 229 245 q 259 551 228 492 q 350 609 291 610 q 394 589 382 608 q 406 548 406 570 l 406 498 q 423 445 405 467 q 486 420 441 422 q 549 444 528 421 q 570 507 570 467 "},"Ñ":{"ha":1017,"x_min":36,"x_max":986,"o":"m 806 342 l 322 934 l 36 934 l 36 903 q 64 898 52 902 q 86 884 76 895 l 155 798 l 155 140 q 127 56 156 82 q 36 31 98 31 l 36 0 l 342 0 l 342 31 q 244 58 272 31 q 216 140 216 85 l 216 723 l 828 -20 l 867 -20 l 867 812 q 900 881 867 858 q 986 903 933 903 l 986 934 l 681 934 l 681 903 q 773 880 741 903 q 806 812 806 856 l 806 342 m 561 1087 q 657 1133 622 1088 q 700 1251 693 1177 l 659 1251 q 638 1210 651 1227 q 597 1192 625 1193 q 526 1208 572 1198 q 447 1220 481 1219 q 353 1174 387 1219 q 311 1057 319 1128 l 355 1057 q 373 1097 361 1080 q 414 1115 385 1114 q 487 1101 451 1113 q 561 1087 524 1089 "},"ñ":{"ha":783,"x_min":33,"x_max":745,"o":"m 431 781 q 527 827 492 783 q 570 945 563 871 l 528 945 q 508 905 520 922 q 467 887 495 888 q 396 903 441 892 q 317 915 351 913 q 223 868 256 913 q 180 751 189 823 l 225 751 q 243 791 231 774 q 283 809 255 808 q 357 795 321 807 q 431 781 393 783 m 302 481 q 353 535 327 515 q 416 556 380 555 q 475 519 465 555 q 484 431 486 483 l 484 106 q 470 52 484 74 q 416 28 455 29 l 416 0 l 745 0 q 745 14 745 2 q 745 28 745 26 q 691 50 706 29 q 677 104 677 71 l 677 454 q 638 593 679 537 q 500 651 597 649 q 385 621 429 650 q 302 545 340 592 l 302 634 l 39 634 l 39 604 q 94 578 79 603 q 109 515 109 553 l 109 104 q 92 48 109 68 q 33 28 75 28 l 33 0 l 370 0 q 370 14 370 2 q 370 28 370 26 q 316 50 331 29 q 302 104 302 71 l 302 481 "},"¡":{"ha":450,"x_min":109,"x_max":339,"o":"m 339 845 q 306 923 338 890 q 222 956 273 955 q 140 920 172 954 q 109 840 109 885 q 140 761 109 794 q 225 726 170 727 q 309 764 279 728 q 339 845 338 800 m 222 -22 q 306 17 278 -20 q 334 101 334 53 q 318 209 332 152 q 286 329 304 266 q 254 466 268 393 q 239 620 240 538 l 203 620 q 186 466 200 538 q 155 329 172 393 q 124 209 138 266 q 111 101 111 152 q 139 14 111 47 q 222 -22 166 -20 "},"¿":{"ha":672,"x_min":86,"x_max":619,"o":"m 370 726 q 453 762 424 728 q 484 842 483 797 q 452 922 483 890 q 370 956 420 955 q 285 921 317 955 q 253 840 254 887 q 284 761 254 794 q 370 726 315 727 m 439 206 q 464 122 442 142 q 489 79 486 102 q 468 39 488 55 q 411 23 447 24 q 313 78 336 26 q 292 201 290 130 q 306 321 292 273 q 338 404 319 370 q 371 468 357 438 q 386 531 385 498 l 386 614 l 345 614 l 345 551 q 303 474 342 502 q 214 417 264 446 q 126 337 164 388 q 86 193 87 287 q 161 43 87 103 q 364 -20 234 -17 q 553 41 488 -17 q 619 186 618 99 q 593 257 618 231 q 525 284 568 283 q 461 263 483 283 q 439 206 439 242 "},"¤":{"ha":839,"x_min":45,"x_max":794,"o":"m 231 592 q 288 724 233 670 q 419 781 342 779 q 551 724 497 779 q 608 592 606 670 q 551 460 606 515 q 419 404 497 406 q 288 460 342 406 q 231 592 233 515 m 45 290 l 114 220 l 253 359 q 324 319 281 334 q 419 304 367 304 q 515 319 472 304 q 586 359 559 334 l 725 220 l 794 290 l 656 429 q 691 495 675 454 q 708 592 707 536 q 691 690 707 648 q 656 756 675 731 l 794 895 l 725 964 l 586 826 q 515 866 559 851 q 419 881 472 881 q 324 866 367 881 q 253 826 281 851 l 114 964 l 45 895 l 183 756 q 148 690 163 731 q 131 592 132 648 q 148 495 132 536 q 183 429 163 454 l 45 290 "},"£":{"ha":692,"x_min":36,"x_max":664,"o":"m 469 850 l 467 792 q 486 718 466 741 q 558 695 505 694 q 624 719 600 695 q 647 787 647 743 q 594 904 646 861 q 444 948 543 947 q 244 881 321 948 q 164 684 167 814 q 169 599 164 639 q 180 526 174 559 l 72 526 l 72 420 l 208 420 q 245 311 224 363 q 261 218 267 259 q 225 226 241 224 q 189 229 209 229 q 75 188 114 227 q 36 95 36 149 q 66 12 37 43 q 147 -20 95 -18 q 254 3 216 -18 q 317 62 292 24 q 386 8 345 33 q 484 -20 427 -17 q 616 47 570 -20 q 664 254 663 114 l 639 254 q 594 178 623 201 q 511 156 564 155 q 436 165 473 157 q 367 186 398 174 q 390 285 383 231 q 395 420 397 338 l 542 420 l 542 526 l 383 526 q 360 667 380 576 q 336 814 339 758 q 354 882 336 855 q 416 909 373 908 q 453 892 438 908 q 469 850 469 876 m 155 162 q 220 150 195 162 q 264 117 245 138 q 232 49 261 77 q 161 20 203 22 q 110 38 131 21 q 89 81 90 56 q 105 135 89 110 q 155 162 122 161 "},"¥":{"ha":900,"x_min":-3,"x_max":905,"o":"m 550 373 l 880 373 l 880 426 l 558 426 l 639 556 l 880 556 l 880 609 l 672 609 l 794 809 q 853 872 823 852 q 905 892 884 892 l 905 928 l 608 928 q 608 909 608 921 q 608 895 608 897 q 715 854 699 894 q 694 753 732 815 q 605 606 661 696 q 511 454 549 515 l 339 789 q 321 860 317 827 q 425 895 325 893 q 425 913 425 899 q 425 928 425 926 l -3 928 q -3 914 -3 927 q -3 895 -3 901 q 55 872 28 895 q 109 801 81 848 l 214 609 l 17 609 l 17 556 l 244 556 l 317 426 l 17 426 l 17 373 l 342 373 l 350 362 l 350 148 q 325 63 351 95 q 228 31 299 32 q 229 17 228 30 q 228 0 230 4 l 672 0 l 672 31 q 578 58 608 31 q 550 140 549 85 l 550 373 "},"§":{"ha":692,"x_min":64,"x_max":625,"o":"m 319 -195 q 485 -152 413 -193 q 561 -33 557 -111 q 522 85 559 37 q 428 178 485 134 q 575 232 526 181 q 625 345 625 282 q 565 486 621 420 q 436 608 510 551 q 308 719 363 666 q 250 823 253 772 q 279 897 251 871 q 353 923 307 923 q 408 909 384 922 q 433 878 432 896 q 413 848 431 861 q 392 789 395 835 q 415 741 393 758 q 472 723 438 723 q 537 750 517 724 q 555 817 556 777 q 494 921 553 886 q 353 956 435 956 q 194 910 255 956 q 131 781 133 865 q 171 671 133 720 q 261 578 210 622 q 123 535 179 578 q 64 412 66 492 q 121 277 66 340 q 250 157 176 214 q 379 45 323 99 q 439 -64 435 -8 q 412 -123 439 -92 q 317 -158 385 -155 q 260 -146 286 -157 q 233 -119 235 -136 q 256 -83 236 -96 q 278 -28 275 -71 q 256 20 277 1 q 203 39 235 39 q 133 14 155 39 q 111 -50 111 -11 q 172 -156 113 -119 q 319 -195 230 -193 m 275 545 q 350 513 308 545 q 447 426 391 481 q 504 355 490 383 q 517 304 518 326 q 486 239 515 264 q 422 214 457 215 q 370 233 401 214 q 281 304 339 252 q 199 391 223 359 q 175 445 174 423 q 200 519 175 494 q 275 545 225 545 "},"ƒ":{"ha":692,"x_min":-1,"x_max":681,"o":"m 606 543 l 606 601 l 441 601 l 441 736 q 460 862 440 798 q 536 931 479 926 q 553 924 549 929 q 558 906 558 918 q 547 882 557 893 q 536 845 538 871 q 555 800 537 817 q 606 781 574 782 q 661 805 642 782 q 681 865 681 828 q 644 944 680 913 q 547 976 608 975 q 339 850 404 968 q 264 601 275 732 l 103 601 l 103 543 l 258 543 q 246 287 248 389 q 244 101 243 184 q 230 -92 247 -15 q 147 -172 214 -169 q 130 -163 137 -171 q 122 -150 122 -156 q 135 -125 123 -135 q 147 -83 146 -116 q 127 -41 146 -57 q 75 -25 109 -25 q 18 -47 36 -25 q -1 -109 0 -70 q 34 -183 0 -151 q 125 -216 68 -214 q 339 -75 259 -214 q 433 317 420 64 q 439 438 439 419 q 441 543 440 457 l 606 543 "},"¢":{"ha":692,"x_min":78,"x_max":623,"o":"m 314 170 q 281 257 293 210 q 269 359 269 304 q 293 532 268 457 q 389 612 317 608 q 437 587 422 610 q 444 537 452 564 l 314 170 m 611 500 q 591 568 611 536 q 528 626 571 600 l 591 809 l 542 809 l 481 640 q 447 648 463 646 q 416 651 431 651 q 176 563 270 651 q 78 295 81 474 q 124 123 79 200 q 256 6 170 45 l 186 -192 l 236 -192 l 300 -8 q 333 -14 318 -12 q 367 -17 349 -16 q 510 18 443 -16 q 623 120 577 52 l 595 148 q 539 99 574 120 q 444 76 504 77 q 393 90 418 77 q 347 123 367 103 l 467 454 q 491 426 473 435 q 536 417 509 417 q 590 441 570 418 q 611 500 610 465 "},"â":{"ha":708,"x_min":39,"x_max":677,"o":"m 297 606 q 385 576 359 605 q 411 507 412 547 l 411 387 q 143 285 244 345 q 39 132 41 226 q 82 18 40 53 q 189 -17 125 -17 q 313 9 258 -15 q 411 67 368 33 q 449 2 418 20 q 522 -17 479 -17 q 608 1 568 -16 q 677 56 648 19 l 659 81 q 645 69 649 71 q 631 67 642 66 q 607 75 611 66 q 603 106 602 84 l 603 456 q 535 603 603 554 q 328 651 467 651 q 135 604 205 650 q 64 475 65 557 q 89 413 64 434 q 155 393 113 393 q 224 418 201 393 q 248 479 248 442 q 228 524 245 510 q 205 556 210 537 q 228 593 205 579 q 297 606 250 606 m 236 162 q 277 279 235 234 q 411 348 318 323 l 411 128 q 363 84 393 102 q 306 64 334 65 q 252 94 269 66 q 236 162 236 123 m 302 962 l 153 728 l 205 728 l 353 850 l 497 728 l 553 728 l 403 962 l 302 962 "},"ê":{"ha":619,"x_min":39,"x_max":583,"o":"m 314 -17 q 485 36 420 -14 q 583 151 549 85 l 553 176 q 488 111 522 134 q 416 87 454 87 q 272 165 311 90 q 236 342 234 241 l 583 342 q 517 563 583 478 q 330 651 452 648 q 113 549 186 647 q 39 307 39 452 q 105 90 38 190 q 314 -17 173 -10 m 416 393 l 236 393 q 248 533 233 463 q 330 609 262 604 q 406 550 392 608 q 416 393 419 492 m 278 962 l 127 728 l 180 728 l 328 850 l 472 728 l 528 728 l 378 962 l 278 962 "},"ô":{"ha":694,"x_min":39,"x_max":650,"o":"m 345 -17 q 565 77 482 -12 q 650 284 648 165 l 650 345 q 562 556 647 466 q 347 651 477 646 q 130 559 217 648 q 39 331 42 470 l 39 290 q 124 74 41 161 q 345 -17 207 -13 m 345 606 q 432 540 410 608 q 453 320 454 473 q 434 95 455 167 q 347 23 412 22 q 258 85 282 20 q 236 309 235 149 q 257 539 235 470 q 345 606 279 608 m 294 962 l 144 728 l 197 728 l 345 850 l 489 728 l 545 728 l 395 962 l 294 962 "},"û":{"ha":770,"x_min":22,"x_max":736,"o":"m 22 601 q 80 580 65 602 q 94 507 95 558 l 94 145 q 138 32 95 79 q 264 -17 182 -14 q 384 11 331 -15 q 469 76 437 37 l 469 -17 q 610 13 536 1 q 736 26 684 25 l 736 56 q 678 77 693 57 q 664 132 663 98 l 664 634 l 392 634 q 392 616 392 630 q 392 601 392 603 q 453 582 437 602 q 469 509 470 562 l 469 137 q 425 90 452 109 q 361 70 398 71 q 303 99 318 71 q 289 168 288 127 l 289 634 l 22 634 q 22 616 22 630 q 22 601 22 603 m 161 728 l 214 728 l 361 850 l 505 728 l 561 728 l 411 962 l 311 962 l 161 728 "},"á":{"ha":708,"x_min":39,"x_max":677,"o":"m 411 507 l 411 387 q 143 285 244 345 q 39 132 41 226 q 82 18 40 53 q 189 -17 125 -17 q 313 9 258 -15 q 411 67 368 33 q 449 2 418 20 q 522 -17 479 -17 q 608 1 568 -16 q 677 56 648 19 l 659 81 q 645 69 649 71 q 631 67 642 66 q 607 75 611 66 q 603 106 602 84 l 603 456 q 535 603 603 554 q 328 651 467 651 q 135 604 205 650 q 64 475 65 557 q 89 413 64 434 q 155 393 113 393 q 224 418 201 393 q 248 479 248 442 q 228 524 245 510 q 205 556 210 537 q 228 593 205 579 q 297 606 250 606 q 385 576 359 605 q 411 507 412 547 m 306 64 q 252 94 269 66 q 236 162 236 123 q 277 279 235 234 q 411 348 318 323 l 411 128 q 363 84 393 102 q 306 64 334 65 m 222 728 l 283 728 l 503 845 q 544 874 532 861 q 555 912 556 888 q 541 951 557 934 q 500 970 526 969 q 451 954 472 970 q 406 915 430 939 l 222 728 "},"é":{"ha":619,"x_min":39,"x_max":583,"o":"m 583 151 l 553 176 q 488 111 522 134 q 416 87 454 87 q 272 165 311 90 q 236 342 234 241 l 583 342 q 517 563 583 478 q 330 651 452 648 q 113 549 186 647 q 39 307 39 452 q 105 90 38 190 q 314 -17 173 -10 q 485 36 420 -14 q 583 151 549 85 m 416 393 l 236 393 q 248 533 233 463 q 330 609 262 604 q 406 550 392 608 q 416 393 419 492 m 258 728 l 478 845 q 519 874 507 861 q 530 912 531 888 q 516 951 532 934 q 475 970 500 969 q 426 954 447 970 q 380 915 405 939 l 197 728 l 258 728 "},"ó":{"ha":694,"x_min":39,"x_max":650,"o":"m 650 284 l 650 345 q 562 556 647 466 q 347 651 477 646 q 130 559 217 648 q 39 331 42 470 l 39 290 q 124 74 41 161 q 345 -17 207 -13 q 565 77 482 -12 q 650 284 648 165 m 236 309 q 257 539 235 470 q 345 606 279 608 q 432 540 410 608 q 453 320 454 473 q 434 95 455 167 q 347 23 412 22 q 258 85 282 20 q 236 309 235 149 m 275 728 l 494 845 q 535 874 523 861 q 547 912 547 888 q 533 951 549 934 q 492 970 517 969 q 443 954 464 970 q 397 915 422 939 l 214 728 l 275 728 "},"ú":{"ha":770,"x_min":22,"x_max":736,"o":"m 94 507 l 94 145 q 138 32 95 79 q 264 -17 182 -14 q 384 11 331 -15 q 469 76 437 37 l 469 -17 q 610 13 536 1 q 736 26 684 25 l 736 56 q 678 77 693 57 q 664 132 663 98 l 664 634 l 392 634 q 392 616 392 630 q 392 601 392 603 q 453 582 437 602 q 469 509 470 562 l 469 137 q 425 90 452 109 q 361 70 398 71 q 303 99 318 71 q 289 168 288 127 l 289 634 l 22 634 q 22 616 22 630 q 22 601 22 603 q 80 580 65 602 q 94 507 95 558 m 292 728 l 511 845 q 552 874 540 861 q 564 912 564 888 q 550 951 566 934 q 509 970 534 969 q 459 954 480 970 q 414 915 437 939 l 231 728 l 292 728 "},"à":{"ha":708,"x_min":39,"x_max":677,"o":"m 411 507 l 411 387 q 143 285 244 345 q 39 132 41 226 q 82 18 40 53 q 189 -17 125 -17 q 313 9 258 -15 q 411 67 368 33 q 449 2 418 20 q 522 -17 479 -17 q 608 1 568 -16 q 677 56 648 19 l 659 81 q 645 69 649 71 q 631 67 642 66 q 607 75 611 66 q 603 106 602 84 l 603 456 q 535 603 603 554 q 328 651 467 651 q 135 604 205 650 q 64 475 65 557 q 89 413 64 434 q 155 393 113 393 q 224 418 201 393 q 248 479 248 442 q 228 524 245 510 q 205 556 210 537 q 228 593 205 579 q 297 606 250 606 q 385 576 359 605 q 411 507 412 547 m 306 64 q 252 94 269 66 q 236 162 236 123 q 277 279 235 234 q 411 348 318 323 l 411 128 q 363 84 393 102 q 306 64 334 65 m 150 912 q 162 874 150 888 q 203 845 174 861 l 422 728 l 484 728 l 300 915 q 255 954 276 939 q 205 970 234 970 q 164 951 180 969 q 150 912 149 934 "},"è":{"ha":619,"x_min":39,"x_max":583,"o":"m 583 151 l 553 176 q 488 111 522 134 q 416 87 454 87 q 272 165 311 90 q 236 342 234 241 l 583 342 q 517 563 583 478 q 330 651 452 648 q 113 549 186 647 q 39 307 39 452 q 105 90 38 190 q 314 -17 173 -10 q 485 36 420 -14 q 583 151 549 85 m 125 912 q 137 874 125 888 q 178 845 149 861 l 397 728 l 458 728 l 275 915 q 230 954 251 939 q 180 970 209 970 q 139 951 155 969 q 125 912 123 934 m 416 393 l 236 393 q 248 533 233 463 q 330 609 262 604 q 406 550 392 608 q 416 393 419 492 "},"ò":{"ha":694,"x_min":39,"x_max":650,"o":"m 650 284 l 650 345 q 562 556 647 466 q 347 651 477 646 q 130 559 217 648 q 39 331 42 470 l 39 290 q 124 74 41 161 q 345 -17 207 -13 q 565 77 482 -12 q 650 284 648 165 m 236 309 q 257 539 235 470 q 345 606 279 608 q 432 540 410 608 q 453 320 454 473 q 434 95 455 167 q 347 23 412 22 q 258 85 282 20 q 236 309 235 149 m 195 845 l 414 728 l 475 728 l 292 915 q 247 954 268 939 q 197 970 226 970 q 156 951 172 969 q 142 912 140 934 q 153 874 141 888 q 195 845 165 861 "},"ù":{"ha":770,"x_min":22,"x_max":736,"o":"m 22 601 q 80 580 65 602 q 94 507 95 558 l 94 145 q 138 32 95 79 q 264 -17 182 -14 q 384 11 331 -15 q 469 76 437 37 l 469 -17 q 610 13 536 1 q 736 26 684 25 l 736 56 q 678 77 693 57 q 664 132 663 98 l 664 634 l 392 634 q 392 616 392 630 q 392 601 392 603 q 453 582 437 602 q 469 509 470 562 l 469 137 q 425 90 452 109 q 361 70 398 71 q 303 99 318 71 q 289 168 288 127 l 289 634 l 22 634 q 22 616 22 630 q 22 601 22 603 m 211 845 l 431 728 l 492 728 l 309 915 q 263 954 285 939 q 214 970 242 970 q 172 951 188 969 q 158 912 157 934 q 170 874 158 888 q 211 845 182 861 "},"ä":{"ha":708,"x_min":39,"x_max":677,"o":"m 297 606 q 385 576 359 605 q 411 507 412 547 l 411 387 q 143 285 244 345 q 39 132 41 226 q 82 18 40 53 q 189 -17 125 -17 q 313 9 258 -15 q 411 67 368 33 q 449 2 418 20 q 522 -17 479 -17 q 608 1 568 -16 q 677 56 648 19 l 659 81 q 645 69 649 71 q 631 67 642 66 q 607 75 611 66 q 603 106 602 84 l 603 456 q 535 603 603 554 q 328 651 467 651 q 135 604 205 650 q 64 475 65 557 q 89 413 64 434 q 155 393 113 393 q 224 418 201 393 q 248 479 248 442 q 228 524 245 510 q 205 556 210 537 q 228 593 205 579 q 297 606 250 606 m 147 837 q 170 779 148 801 q 231 756 193 757 q 289 780 269 757 q 309 837 309 802 q 287 894 308 871 q 231 918 265 917 q 172 895 196 917 q 147 837 149 873 m 478 756 q 535 780 515 757 q 555 837 555 802 q 533 894 555 871 q 478 918 512 917 q 420 895 444 917 q 395 837 396 873 q 418 779 395 801 q 478 756 440 757 m 236 162 q 277 279 235 234 q 411 348 318 323 l 411 128 q 363 84 393 102 q 306 64 334 65 q 252 94 269 66 q 236 162 236 123 "},"ë":{"ha":619,"x_min":39,"x_max":583,"o":"m 122 837 q 145 779 123 801 q 205 756 168 757 q 263 780 243 757 q 283 837 283 802 q 261 894 283 871 q 205 918 240 917 q 148 895 172 917 q 122 837 123 873 m 453 756 q 510 780 490 757 q 530 837 530 802 q 508 894 530 871 q 453 918 487 917 q 395 895 418 917 q 370 837 371 873 q 393 779 370 801 q 453 756 415 757 m 314 -17 q 485 36 420 -14 q 583 151 549 85 l 553 176 q 488 111 522 134 q 416 87 454 87 q 272 165 311 90 q 236 342 234 241 l 583 342 q 517 563 583 478 q 330 651 452 648 q 113 549 186 647 q 39 307 39 452 q 105 90 38 190 q 314 -17 173 -10 m 236 393 q 248 533 233 463 q 330 609 262 604 q 406 550 392 608 q 416 393 419 492 l 236 393 "},"ö":{"ha":694,"x_min":39,"x_max":650,"o":"m 345 -17 q 565 77 482 -12 q 650 284 648 165 l 650 345 q 562 556 647 466 q 347 651 477 646 q 130 559 217 648 q 39 331 42 470 l 39 290 q 124 74 41 161 q 345 -17 207 -13 m 345 606 q 432 540 410 608 q 453 320 454 473 q 434 95 455 167 q 347 23 412 22 q 258 85 282 20 q 236 309 235 149 q 257 539 235 470 q 345 606 279 608 m 139 837 q 162 779 140 801 q 222 756 184 757 q 280 780 260 757 q 300 837 300 802 q 278 894 299 871 q 222 918 256 917 q 164 895 188 917 q 139 837 140 873 m 469 756 q 527 780 507 757 q 547 837 547 802 q 525 894 547 871 q 469 918 504 917 q 411 895 435 917 q 386 837 387 873 q 409 779 387 801 q 469 756 431 757 "},"ü":{"ha":770,"x_min":22,"x_max":736,"o":"m 94 507 l 94 145 q 138 32 95 79 q 264 -17 182 -14 q 384 11 331 -15 q 469 76 437 37 l 469 -17 q 610 13 536 1 q 736 26 684 25 l 736 56 q 678 77 693 57 q 664 132 663 98 l 664 634 l 392 634 q 392 616 392 630 q 392 601 392 603 q 453 582 437 602 q 469 509 470 562 l 469 137 q 425 90 452 109 q 361 70 398 71 q 303 99 318 71 q 289 168 288 127 l 289 634 l 22 634 q 22 616 22 630 q 22 601 22 603 q 80 580 65 602 q 94 507 95 558 m 155 837 q 178 779 156 801 q 239 756 201 757 q 297 780 277 757 q 317 837 317 802 q 295 894 316 871 q 239 918 273 917 q 181 895 205 917 q 155 837 157 873 m 486 756 q 544 780 524 757 q 564 837 564 802 q 542 894 563 871 q 486 918 520 917 q 428 895 452 917 q 403 837 404 873 q 426 779 404 801 q 486 756 448 757 "},"Å":{"ha":900,"x_min":-18,"x_max":908,"o":"m 517 273 l 575 125 q 564 55 591 76 q 469 34 536 33 l 469 0 l 908 0 l 908 34 q 845 62 867 35 q 803 140 823 90 l 458 956 l 422 956 q 348 773 390 878 q 260 555 306 669 q 171 336 214 441 q 97 151 127 231 q 55 71 81 105 q -18 34 28 36 l -18 0 l 258 0 q 258 14 258 1 q 258 34 258 26 q 163 63 188 35 q 158 142 138 92 l 208 273 l 517 273 m 361 659 l 494 328 l 231 328 l 361 659 m 441 989 q 562 1045 523 993 q 600 1154 600 1097 q 558 1256 600 1208 q 444 1306 516 1303 q 329 1258 372 1303 q 283 1154 285 1212 q 322 1043 283 1094 q 441 989 361 993 m 439 1232 q 498 1207 475 1231 q 522 1148 522 1184 q 499 1090 522 1112 q 441 1067 476 1068 q 385 1092 408 1069 q 361 1148 361 1116 q 382 1205 361 1181 q 439 1232 404 1230 "},"î":{"ha":408,"x_min":3,"x_max":403,"o":"m 153 962 l 3 728 l 56 728 l 203 850 l 347 728 l 403 728 l 253 962 l 153 962 m 41 604 q 94 585 79 604 q 109 531 109 567 l 109 92 q 90 48 109 66 q 36 28 72 29 l 36 0 l 370 0 l 370 28 q 318 48 334 29 q 302 92 302 66 l 302 634 l 41 634 l 41 604 "},"Ø":{"ha":1083,"x_min":56,"x_max":1025,"o":"m 1025 454 l 1025 507 q 972 703 1023 605 q 839 862 922 800 l 956 1034 l 884 1034 l 786 892 q 682 939 739 922 q 536 956 626 956 q 188 804 317 946 q 56 507 58 662 l 56 423 q 104 235 56 323 q 233 79 151 148 l 106 -109 l 178 -109 l 283 45 q 394 -3 336 14 q 528 -20 452 -19 q 900 134 776 -10 q 1025 454 1025 278 m 720 787 l 330 214 q 307 322 316 258 q 297 454 297 387 l 297 507 q 349 776 295 648 q 539 912 404 903 q 652 873 611 910 q 720 787 694 836 m 783 439 q 736 172 787 307 q 533 26 686 37 q 422 61 467 27 q 355 145 378 94 l 747 723 q 775 601 766 663 q 783 490 783 538 l 783 439 "},"Æ":{"ha":1297,"x_min":-26,"x_max":1270,"o":"m 778 459 q 945 402 900 458 q 994 237 989 345 l 1025 237 l 1025 706 l 994 706 q 942 552 984 604 q 778 500 901 500 l 778 831 q 800 880 778 871 q 869 887 822 889 l 917 887 q 1102 831 1037 888 q 1183 656 1167 774 l 1217 656 l 1217 934 l 353 934 l 353 903 q 453 882 425 903 q 458 814 482 860 l 81 120 q 33 54 58 76 q -26 31 8 31 l -26 0 l 261 0 l 261 31 q 159 67 176 33 q 167 151 142 101 l 309 417 l 570 417 l 570 123 q 539 57 570 82 q 439 31 509 32 q 439 15 439 28 q 439 0 439 2 l 1214 0 l 1270 284 l 1239 284 q 1114 110 1190 171 q 922 48 1038 49 l 872 48 q 800 64 823 47 q 778 120 778 81 l 778 459 m 567 895 l 567 473 l 339 473 l 567 895 "},"å":{"ha":708,"x_min":39,"x_max":677,"o":"m 297 606 q 385 576 359 605 q 411 507 412 547 l 411 387 q 143 285 244 345 q 39 132 41 226 q 82 18 40 53 q 189 -17 125 -17 q 313 9 258 -15 q 411 67 368 33 q 449 2 418 20 q 522 -17 479 -17 q 608 1 568 -16 q 677 56 648 19 l 659 81 q 645 69 649 71 q 631 67 642 66 q 607 75 611 66 q 603 106 602 84 l 603 456 q 535 603 603 554 q 328 651 467 651 q 135 604 205 650 q 64 475 65 557 q 89 413 64 434 q 155 393 113 393 q 224 418 201 393 q 248 479 248 442 q 228 524 245 510 q 205 556 210 537 q 228 593 205 579 q 297 606 250 606 m 345 703 q 466 755 426 706 q 505 865 505 804 q 462 971 505 926 q 345 1020 420 1017 q 226 971 269 1017 q 183 865 184 926 q 223 755 183 804 q 345 703 263 706 m 342 945 q 402 921 380 945 q 425 862 425 898 q 404 804 425 826 q 350 781 384 782 q 290 799 315 781 q 264 854 265 817 q 284 918 264 892 q 342 945 304 944 m 236 162 q 277 279 235 234 q 411 348 318 323 l 411 128 q 363 84 393 102 q 306 64 334 65 q 252 94 269 66 q 236 162 236 123 "},"í":{"ha":408,"x_min":36,"x_max":408,"o":"m 134 728 l 353 845 q 394 874 382 861 q 406 912 406 888 q 391 951 407 934 q 350 970 376 969 q 301 954 322 970 q 256 915 280 939 l 72 728 l 134 728 m 41 604 q 94 585 79 604 q 109 531 109 567 l 109 92 q 90 48 109 66 q 36 28 72 29 l 36 0 l 370 0 l 370 28 q 318 48 334 29 q 302 92 302 66 l 302 634 l 41 634 l 41 604 "},"ø":{"ha":694,"x_min":39,"x_max":650,"o":"m 650 345 q 616 480 649 415 q 525 589 584 546 l 625 756 l 564 756 l 481 617 q 423 642 458 632 q 342 651 388 651 q 121 555 202 646 q 39 345 41 465 l 39 287 q 67 156 39 219 q 147 51 95 94 l 41 -125 l 100 -125 l 189 20 q 262 -5 223 5 q 339 -17 301 -16 q 570 82 492 -11 q 650 292 649 174 l 650 345 m 433 543 l 239 206 q 236 266 237 244 q 236 309 236 288 l 236 370 q 250 524 233 444 q 345 612 267 605 q 405 592 384 611 q 433 543 426 574 m 350 20 q 274 52 296 22 q 248 123 252 81 l 441 451 q 452 390 450 418 q 453 340 454 363 l 453 281 q 440 112 456 197 q 350 20 424 27 "},"æ":{"ha":981,"x_min":39,"x_max":947,"o":"m 750 84 q 634 143 673 86 q 595 290 595 200 l 595 345 l 942 345 q 941 392 942 373 q 936 439 940 412 q 866 581 927 515 q 703 651 806 647 q 585 632 634 651 q 509 578 536 612 q 429 635 479 618 q 311 651 380 652 q 131 600 197 649 q 64 481 65 551 q 90 417 64 441 q 158 393 116 393 q 225 414 202 393 q 248 470 248 435 q 228 525 245 514 q 208 556 211 536 q 234 595 209 581 q 302 609 258 609 q 378 584 349 608 q 408 517 408 559 l 408 389 q 134 281 229 342 q 39 128 39 219 q 86 19 41 54 q 200 -17 132 -16 q 333 9 275 -17 q 453 92 391 35 q 535 16 485 47 q 669 -17 585 -15 q 842 35 774 -14 q 947 156 909 85 l 920 178 q 847 111 887 138 q 750 84 808 85 m 322 67 q 257 94 279 68 q 236 162 236 119 q 277 270 235 224 q 408 348 319 317 q 412 236 406 293 q 433 134 417 179 q 386 89 414 109 q 322 67 358 68 m 775 395 l 595 395 q 609 540 593 473 q 686 612 626 607 q 763 550 749 610 q 775 395 778 491 "},"Ä":{"ha":900,"x_min":-15,"x_max":911,"o":"m 578 125 q 567 55 594 76 q 472 34 539 33 l 472 0 l 911 0 l 911 34 q 848 62 871 35 q 806 140 825 90 l 461 956 l 425 956 q 351 773 393 878 q 262 555 309 669 q 174 336 216 441 q 100 151 131 231 q 58 71 84 105 q -15 34 31 36 l -15 0 l 261 0 q 261 14 261 1 q 261 34 261 26 q 165 63 191 35 q 161 142 140 92 l 211 273 l 519 273 l 578 125 m 233 328 l 364 659 l 497 328 l 233 328 m 244 1143 q 267 1085 245 1107 q 328 1062 290 1063 q 386 1085 366 1063 q 406 1143 406 1108 q 384 1199 405 1177 q 328 1223 362 1222 q 270 1200 294 1222 q 244 1143 245 1179 m 575 1062 q 633 1085 613 1063 q 653 1143 653 1108 q 631 1199 652 1177 q 575 1223 609 1222 q 517 1200 541 1222 q 492 1143 493 1179 q 515 1085 492 1107 q 575 1062 537 1063 "},"ì":{"ha":408,"x_min":-1,"x_max":370,"o":"m 109 531 l 109 92 q 90 48 109 66 q 36 28 72 29 l 36 0 l 370 0 l 370 28 q 318 48 334 29 q 302 92 302 66 l 302 634 l 41 634 l 41 604 q 94 585 79 604 q 109 531 109 567 m 0 912 q 12 874 0 888 q 53 845 24 861 l 272 728 l 334 728 l 150 915 q 105 954 126 939 q 56 970 84 970 q 15 951 31 969 q 0 912 0 934 "},"Ö":{"ha":1083,"x_min":56,"x_max":1025,"o":"m 1025 473 q 898 805 1023 662 q 539 956 773 949 q 181 799 304 947 q 56 473 57 650 q 171 142 55 294 q 530 -20 288 -9 q 900 135 775 -11 q 1025 473 1024 281 m 536 912 q 727 778 670 905 q 783 479 785 650 q 738 168 787 304 q 547 23 690 31 q 350 164 406 30 q 297 479 295 299 q 349 783 295 659 q 536 912 403 907 m 334 1143 q 356 1085 334 1107 q 416 1062 378 1063 q 474 1085 454 1063 q 494 1143 494 1108 q 472 1199 494 1177 q 416 1223 451 1222 q 359 1200 382 1222 q 334 1143 335 1179 m 664 1062 q 722 1085 702 1063 q 742 1143 742 1108 q 720 1199 741 1177 q 664 1223 698 1222 q 606 1200 629 1222 q 581 1143 582 1179 q 604 1085 581 1107 q 664 1062 626 1063 "},"Ü":{"ha":1014,"x_min":31,"x_max":972,"o":"m 345 1143 q 368 1085 345 1107 q 428 1062 390 1063 q 486 1085 466 1063 q 505 1143 505 1108 q 483 1199 505 1177 q 428 1223 462 1222 q 370 1200 393 1222 q 345 1143 346 1179 m 675 1062 q 733 1085 713 1063 q 753 1143 753 1108 q 731 1199 752 1177 q 675 1223 709 1222 q 617 1200 641 1222 q 591 1143 593 1179 q 614 1085 592 1107 q 675 1062 637 1063 m 867 781 q 891 869 866 836 q 972 903 916 903 l 972 934 l 677 934 l 677 903 q 780 872 750 903 q 808 781 809 840 l 808 304 q 754 119 810 196 q 567 39 699 43 q 408 116 447 42 q 372 304 369 191 l 372 787 q 395 873 370 844 q 494 903 420 903 l 494 934 l 31 934 l 31 903 q 128 870 102 903 q 153 781 154 838 l 153 295 q 241 53 153 133 q 511 -28 330 -27 q 774 59 683 -26 q 867 304 866 144 l 867 781 "},"É":{"ha":911,"x_min":31,"x_max":884,"o":"m 383 1034 l 603 1151 q 644 1180 631 1166 q 656 1217 656 1194 q 642 1257 657 1239 q 600 1276 626 1274 q 551 1259 572 1275 q 505 1220 530 1244 l 322 1034 l 383 1034 m 503 887 q 704 834 629 888 q 791 656 779 780 l 819 656 l 819 934 l 33 934 l 33 903 q 126 876 99 903 q 153 798 153 848 l 153 132 q 126 57 153 85 q 31 28 98 29 l 31 0 l 828 0 l 884 290 q 865 290 876 288 q 844 287 854 292 q 713 107 800 164 q 503 51 626 50 l 461 51 q 391 71 410 51 q 372 125 372 90 l 372 456 q 539 404 497 457 q 591 239 581 351 q 611 239 597 239 q 625 239 624 239 l 625 706 l 595 706 q 534 547 573 595 q 372 500 496 499 l 372 817 q 391 869 372 851 q 453 887 410 887 l 503 887 "},"ï":{"ha":408,"x_min":-1,"x_max":406,"o":"m 41 604 q 94 585 79 604 q 109 531 109 567 l 109 92 q 90 48 109 66 q 36 28 72 29 l 36 0 l 370 0 l 370 28 q 318 48 334 29 q 302 92 302 66 l 302 634 l 41 634 l 41 604 m 81 918 q 23 895 46 917 q -1 837 0 873 q 21 779 0 801 q 81 756 43 757 q 138 780 119 757 q 158 837 158 802 q 136 894 157 871 q 81 918 115 917 m 328 756 q 386 780 366 757 q 406 837 406 802 q 384 894 405 871 q 328 918 362 917 q 270 895 294 917 q 244 837 245 873 q 267 779 245 801 q 328 756 290 757 "},"ß":{"ha":761,"x_min":25,"x_max":708,"o":"m 647 745 q 572 898 646 844 q 370 954 498 953 q 174 882 248 951 q 97 698 99 812 l 97 134 q 82 57 98 82 q 25 31 66 31 l 25 0 l 283 0 l 283 718 q 295 857 281 801 q 372 915 309 913 q 454 858 437 911 q 469 740 471 804 q 457 614 473 665 q 367 562 441 564 l 367 515 l 389 515 q 492 431 469 509 q 511 276 514 353 q 501 113 514 189 q 428 31 488 37 q 401 35 413 31 q 378 48 389 39 l 358 1 q 405 -12 377 -7 q 461 -17 432 -16 q 647 70 586 -13 q 708 279 708 153 q 642 451 708 380 q 444 543 576 522 q 588 612 532 562 q 647 745 645 662 "},"Ô":{"ha":1083,"x_min":56,"x_max":1025,"o":"m 684 1034 l 739 1034 l 589 1267 l 489 1267 l 339 1034 l 395 1034 l 539 1156 l 684 1034 m 539 956 q 181 799 304 947 q 56 473 57 650 q 171 142 55 294 q 530 -20 288 -9 q 900 135 775 -11 q 1025 473 1024 281 q 898 805 1023 662 q 539 956 773 949 m 536 912 q 727 778 670 905 q 783 479 785 650 q 738 168 787 304 q 547 23 690 31 q 350 164 406 30 q 297 479 295 299 q 349 783 295 659 q 536 912 403 907 "},"Á":{"ha":900,"x_min":-15,"x_max":911,"o":"m 519 273 l 578 125 q 567 55 594 76 q 472 34 539 33 l 472 0 l 911 0 l 911 34 q 848 62 871 35 q 806 140 825 90 l 461 956 l 425 956 q 351 773 393 878 q 262 555 309 669 q 174 336 216 441 q 100 151 131 231 q 58 71 84 105 q -15 34 31 36 l -15 0 l 261 0 q 261 14 261 1 q 261 34 261 26 q 165 63 191 35 q 161 142 140 92 l 211 273 l 519 273 m 364 659 l 497 328 l 233 328 l 364 659 m 319 1034 l 380 1034 l 600 1151 q 641 1180 629 1166 q 653 1217 653 1194 q 639 1257 654 1239 q 597 1276 623 1274 q 548 1259 569 1275 q 503 1220 527 1244 l 319 1034 "},"Ã":{"ha":900,"x_min":-15,"x_max":911,"o":"m 519 273 l 578 125 q 567 55 594 76 q 472 34 539 33 l 472 0 l 911 0 l 911 34 q 848 62 871 35 q 806 140 825 90 l 461 956 l 425 956 q 351 773 393 878 q 262 555 309 669 q 174 336 216 441 q 100 151 131 231 q 58 71 84 105 q -15 34 31 36 l -15 0 l 261 0 q 261 14 261 1 q 261 34 261 26 q 165 63 191 35 q 161 142 140 92 l 211 273 l 519 273 m 364 659 l 497 328 l 233 328 l 364 659 m 505 1087 q 602 1133 566 1088 q 644 1251 637 1177 l 603 1251 q 583 1210 595 1227 q 542 1192 570 1193 q 471 1208 516 1198 q 392 1220 426 1219 q 298 1174 332 1219 q 256 1057 264 1128 l 300 1057 q 318 1097 306 1080 q 358 1115 330 1114 q 432 1101 395 1113 q 505 1087 468 1089 "},"ã":{"ha":708,"x_min":39,"x_max":677,"o":"m 408 781 q 505 827 469 783 q 547 945 541 871 l 505 945 q 485 905 498 922 q 444 887 473 888 q 373 903 418 892 q 294 915 328 913 q 200 868 234 913 q 158 751 167 823 l 203 751 q 220 791 208 774 q 261 809 233 808 q 335 795 298 807 q 408 781 371 783 m 411 507 l 411 387 q 143 285 244 345 q 39 132 41 226 q 82 18 40 53 q 189 -17 125 -17 q 313 9 258 -15 q 411 67 368 33 q 449 2 418 20 q 522 -17 479 -17 q 608 1 568 -16 q 677 56 648 19 l 659 81 q 645 69 649 71 q 631 67 642 66 q 607 75 611 66 q 603 106 602 84 l 603 456 q 535 603 603 554 q 328 651 467 651 q 135 604 205 650 q 64 475 65 557 q 89 413 64 434 q 155 393 113 393 q 224 418 201 393 q 248 479 248 442 q 228 524 245 510 q 205 556 210 537 q 228 593 205 579 q 297 606 250 606 q 385 576 359 605 q 411 507 412 547 m 306 64 q 252 94 269 66 q 236 162 236 123 q 277 279 235 234 q 411 348 318 323 l 411 128 q 363 84 393 102 q 306 64 334 65 "},"Ð":{"ha":1028,"x_min":0,"x_max":970,"o":"m 378 454 l 553 454 l 553 512 l 378 512 l 378 801 q 393 869 376 848 q 469 890 410 890 q 673 763 613 882 q 730 498 732 643 l 730 426 q 666 153 730 258 q 472 45 602 49 q 396 64 416 43 q 378 151 376 84 l 378 454 m 33 934 l 33 901 q 124 880 90 902 q 158 798 157 857 l 158 512 l 0 512 l 0 454 l 158 454 l 158 140 q 133 56 159 82 q 47 31 107 31 l 47 0 l 486 0 q 851 121 732 2 q 970 456 970 240 l 970 490 q 846 804 968 680 q 494 934 723 929 l 33 934 "},"ð":{"ha":700,"x_min":39,"x_max":656,"o":"m 397 651 q 374 652 387 651 q 347 654 362 654 q 123 559 206 649 q 39 351 41 470 l 39 298 q 126 72 41 158 q 345 -17 211 -14 q 584 100 510 -9 q 656 328 657 208 l 656 373 q 596 618 654 500 q 436 812 538 736 l 619 903 l 595 948 l 392 848 q 289 916 340 885 q 186 973 238 946 l 158 943 l 292 798 l 86 695 l 109 651 l 325 756 q 364 706 349 728 q 397 651 380 683 m 236 378 q 256 545 234 477 q 347 614 279 612 q 438 545 416 612 q 458 378 460 477 l 458 259 q 435 85 460 146 q 345 23 410 24 q 259 83 283 24 q 236 245 235 142 l 236 378 "},"Í":{"ha":536,"x_min":31,"x_max":503,"o":"m 372 142 l 372 795 q 402 881 372 857 q 500 903 433 905 l 500 934 l 31 934 l 31 903 q 129 879 104 904 q 153 795 155 853 l 153 142 q 123 62 153 92 q 31 31 93 32 l 31 0 l 503 0 l 503 31 q 404 61 436 32 q 372 142 372 90 m 197 1034 l 416 1151 q 458 1180 446 1166 q 469 1217 470 1194 q 455 1257 471 1239 q 414 1276 439 1274 q 365 1259 386 1275 q 319 1220 344 1244 l 136 1034 l 197 1034 "},"Ì":{"ha":536,"x_min":31,"x_max":503,"o":"m 372 142 l 372 795 q 402 881 372 857 q 500 903 433 905 l 500 934 l 31 934 l 31 903 q 129 879 104 904 q 153 795 155 853 l 153 142 q 123 62 153 92 q 31 31 93 32 l 31 0 l 503 0 l 503 31 q 404 61 436 32 q 372 142 372 90 m 336 1034 l 397 1034 l 214 1220 q 169 1259 190 1244 q 119 1276 148 1275 q 78 1257 94 1274 q 64 1217 62 1239 q 76 1180 64 1194 q 117 1151 88 1166 l 336 1034 "},"Ó":{"ha":1083,"x_min":56,"x_max":1025,"o":"m 539 956 q 181 799 304 947 q 56 473 57 650 q 171 142 55 294 q 530 -20 288 -9 q 900 135 775 -11 q 1025 473 1024 281 q 898 805 1023 662 q 539 956 773 949 m 536 912 q 727 778 670 905 q 783 479 785 650 q 738 168 787 304 q 547 23 690 31 q 350 164 406 30 q 297 479 295 299 q 349 783 295 659 q 536 912 403 907 m 469 1034 l 689 1151 q 730 1180 718 1166 q 742 1217 742 1194 q 728 1257 743 1239 q 686 1276 712 1274 q 637 1259 658 1275 q 591 1220 616 1244 l 408 1034 l 469 1034 "},"Ò":{"ha":1083,"x_min":56,"x_max":1025,"o":"m 539 956 q 181 799 304 947 q 56 473 57 650 q 171 142 55 294 q 530 -20 288 -9 q 900 135 775 -11 q 1025 473 1024 281 q 898 805 1023 662 q 539 956 773 949 m 536 912 q 727 778 670 905 q 783 479 785 650 q 738 168 787 304 q 547 23 690 31 q 350 164 406 30 q 297 479 295 299 q 349 783 295 659 q 536 912 403 907 m 669 1034 l 486 1220 q 441 1259 463 1244 q 392 1276 420 1275 q 351 1257 366 1274 q 336 1217 335 1239 q 348 1180 336 1194 q 389 1151 360 1166 l 608 1034 l 669 1034 "},"Õ":{"ha":1083,"x_min":56,"x_max":1025,"o":"m 539 956 q 181 799 304 947 q 56 473 57 650 q 171 142 55 294 q 530 -20 288 -9 q 900 135 775 -11 q 1025 473 1024 281 q 898 805 1023 662 q 539 956 773 949 m 536 912 q 727 778 670 905 q 783 479 785 650 q 738 168 787 304 q 547 23 690 31 q 350 164 406 30 q 297 479 295 299 q 349 783 295 659 q 536 912 403 907 m 447 1115 q 521 1101 484 1113 q 595 1087 557 1089 q 691 1133 655 1088 q 733 1251 726 1177 l 692 1251 q 672 1210 684 1227 q 631 1192 659 1193 q 560 1208 605 1198 q 481 1220 515 1219 q 387 1174 420 1219 q 345 1057 353 1128 l 389 1057 q 407 1097 395 1080 q 447 1115 418 1114 "},"õ":{"ha":694,"x_min":39,"x_max":650,"o":"m 650 284 l 650 345 q 562 556 647 466 q 347 651 477 646 q 130 559 217 648 q 39 331 42 470 l 39 290 q 124 74 41 161 q 345 -17 207 -13 q 565 77 482 -12 q 650 284 648 165 m 345 606 q 432 540 410 608 q 453 320 454 473 q 434 95 455 167 q 347 23 412 22 q 258 85 282 20 q 236 309 235 149 q 257 539 235 470 q 345 606 279 608 m 253 809 q 327 795 290 807 q 400 781 363 783 q 497 827 461 783 q 539 945 532 871 l 497 945 q 477 905 490 922 q 436 887 465 888 q 365 903 410 892 q 286 915 320 913 q 192 868 226 913 q 150 751 159 823 l 195 751 q 212 791 200 774 q 253 809 224 808 "},"Š":{"ha":803,"x_min":89,"x_max":736,"o":"m 200 1267 l 350 1034 l 450 1034 l 600 1267 l 545 1267 l 400 1145 l 256 1267 l 200 1267 m 736 273 q 658 469 732 401 q 489 576 585 537 q 320 658 393 616 q 244 779 248 701 q 283 873 244 833 q 397 915 322 913 q 571 832 500 910 q 664 656 642 755 l 697 656 l 697 956 q 680 956 695 956 q 661 956 665 956 q 644 924 653 935 q 614 912 634 912 q 534 934 580 915 q 383 956 488 954 q 176 875 248 953 q 103 690 104 798 q 176 499 106 568 q 338 390 245 431 q 501 308 431 349 q 575 195 571 266 q 534 78 576 128 q 400 26 493 28 q 213 119 275 31 q 127 323 151 208 l 89 323 l 89 -20 l 125 -20 q 142 13 133 2 q 167 23 151 23 q 257 2 219 20 q 389 -20 295 -16 q 643 57 551 -18 q 736 273 734 132 "},"š":{"ha":595,"x_min":75,"x_max":528,"o":"m 94 962 l 244 728 l 345 728 l 494 962 l 439 962 l 294 840 l 150 962 l 94 962 m 109 212 l 75 212 l 75 -17 l 103 -17 q 122 7 110 -3 q 147 18 134 17 q 211 1 181 16 q 306 -17 240 -14 q 472 41 416 -15 q 528 193 528 97 q 478 328 525 281 q 370 400 431 374 q 262 453 309 426 q 214 531 215 480 q 239 585 214 564 q 306 606 264 606 q 416 554 374 603 q 469 454 457 505 l 500 454 l 500 651 l 475 651 q 457 630 469 636 q 433 623 446 623 q 380 637 409 625 q 289 651 351 649 q 132 591 188 649 q 75 445 76 532 q 124 330 77 373 q 235 258 172 287 q 347 199 298 230 q 397 117 395 168 q 366 51 396 73 q 289 28 336 28 q 171 85 219 31 q 109 212 123 138 "},"Ú":{"ha":1014,"x_min":31,"x_max":972,"o":"m 867 304 l 867 781 q 891 869 866 836 q 972 903 916 903 l 972 934 l 677 934 l 677 903 q 780 872 750 903 q 808 781 809 840 l 808 304 q 754 119 810 196 q 567 39 699 43 q 408 116 447 42 q 372 304 369 191 l 372 787 q 395 873 370 844 q 494 903 420 903 l 494 934 l 31 934 l 31 903 q 128 870 102 903 q 153 781 154 838 l 153 295 q 241 53 153 133 q 511 -28 330 -27 q 774 59 683 -26 q 867 304 866 144 m 481 1034 l 700 1151 q 741 1180 729 1166 q 753 1217 753 1194 q 739 1257 754 1239 q 697 1276 723 1274 q 648 1259 669 1275 q 603 1220 627 1244 l 419 1034 l 481 1034 "},"Ÿ":{"ha":878,"x_min":-26,"x_max":903,"o":"m 550 142 l 550 414 l 791 809 q 844 874 814 848 q 903 901 873 900 l 903 934 l 608 934 l 608 901 q 708 865 680 899 q 703 776 735 831 l 511 459 l 339 795 q 327 877 309 853 q 425 901 345 901 l 425 934 l -26 934 l -26 901 q 36 877 8 901 q 89 806 64 852 l 330 365 l 330 142 q 297 57 330 83 q 208 31 265 31 l 208 0 l 672 0 l 672 31 q 582 54 614 30 q 550 142 551 79 m 231 1143 q 254 1085 231 1107 q 314 1062 276 1063 q 372 1085 352 1063 q 392 1143 392 1108 q 370 1199 391 1177 q 314 1223 348 1222 q 256 1200 279 1222 q 231 1143 232 1179 m 639 1143 q 617 1199 638 1177 q 561 1223 595 1222 q 503 1200 527 1222 q 478 1143 479 1179 q 501 1085 479 1107 q 561 1062 523 1063 q 619 1085 599 1063 q 639 1143 639 1108 "},"ÿ":{"ha":616,"x_min":-12,"x_max":614,"o":"m 103 837 q 126 779 104 801 q 186 756 148 757 q 244 780 224 757 q 264 837 264 802 q 242 894 263 871 q 186 918 220 917 q 128 895 152 917 q 103 837 104 873 m 433 756 q 491 780 471 757 q 511 837 511 802 q 489 894 511 871 q 433 918 468 917 q 375 895 399 917 q 350 837 351 873 q 373 779 351 801 q 433 756 395 757 m 69 526 l 289 -14 q 264 -87 279 -51 q 233 -153 250 -123 q 210 -188 224 -174 q 170 -203 196 -201 q 152 -192 155 -201 q 150 -158 149 -184 q 134 -104 151 -125 q 75 -83 118 -83 q 11 -110 33 -83 q -12 -180 -11 -136 q 19 -258 -11 -229 q 109 -289 50 -288 q 215 -255 166 -291 q 309 -111 263 -220 l 539 515 q 567 574 549 546 q 614 604 585 602 l 614 634 l 416 634 l 416 604 q 487 574 479 602 q 481 512 496 547 l 380 239 l 275 512 q 261 576 257 550 q 334 604 266 602 l 334 634 l -6 634 l -6 604 q 40 584 24 604 q 69 526 56 565 "},"Þ":{"ha":861,"x_min":31,"x_max":836,"o":"m 600 479 q 557 343 601 393 q 422 292 514 293 l 367 292 l 367 637 q 379 691 366 673 q 436 709 393 709 q 569 647 536 708 q 600 479 603 586 m 31 934 l 31 903 q 128 879 102 903 q 153 804 154 855 l 153 145 q 124 61 153 91 q 31 31 95 32 l 31 0 l 500 0 l 500 31 q 398 60 430 31 q 367 145 366 89 l 367 245 l 497 245 q 756 321 675 248 q 836 509 838 394 q 750 687 836 620 q 505 756 665 754 l 370 756 l 370 809 q 396 880 368 857 q 497 903 424 903 l 497 934 l 31 934 "},"þ":{"ha":766,"x_min":36,"x_max":722,"o":"m 109 806 l 109 -153 q 99 -219 111 -186 q 36 -256 88 -252 q 36 -273 36 -259 q 36 -286 36 -288 l 408 -286 q 408 -268 408 -280 q 408 -256 408 -256 q 324 -227 347 -254 q 302 -150 301 -199 l 302 70 q 371 7 325 30 q 472 -17 417 -16 q 664 96 604 -10 q 722 331 724 202 q 657 558 721 468 q 484 651 593 648 q 379 625 420 650 q 302 553 337 600 l 302 934 l 39 934 l 39 903 q 100 873 89 902 q 109 806 111 844 m 302 162 l 302 479 q 343 540 317 511 q 408 570 369 568 q 501 506 475 567 q 525 368 526 446 l 525 292 q 492 116 524 176 q 406 56 460 56 q 332 88 361 58 q 302 162 303 119 "},"∙":{"ha":345,"x_min":58,"x_max":286,"o":"m 172 581 q 92 547 125 580 q 58 467 60 515 q 92 387 60 420 q 172 353 125 355 q 252 387 220 355 q 286 467 285 420 q 252 547 285 515 q 172 581 220 580 "},"µ":{"ha":811,"x_min":-84,"x_max":755,"o":"m 431 115 q 465 21 436 54 q 553 -14 494 -12 q 700 57 650 -9 q 753 203 749 123 q 751 219 755 209 q 733 231 747 230 q 713 222 721 231 q 705 209 705 214 q 671 133 694 165 q 606 98 648 100 q 561 128 569 100 q 558 190 553 157 l 644 592 l 475 592 q 455 507 465 555 q 433 407 444 459 q 413 307 422 355 q 395 220 403 259 q 357 141 386 178 q 278 101 328 104 q 208 137 224 103 q 200 214 191 171 l 278 592 l 109 592 q 23 207 58 353 q -35 -19 -12 60 q -70 -139 -59 -98 q -81 -205 -81 -179 q -63 -261 -83 -239 q -9 -283 -44 -282 q 57 -242 36 -282 q 85 -138 78 -201 q 98 -4 93 -75 q 119 132 103 67 q 165 25 128 62 q 267 -14 202 -12 q 375 25 336 -12 q 431 115 413 61 "},"¶":{"ha":692,"x_min":28,"x_max":661,"o":"m 375 0 l 375 920 l 486 920 l 486 0 l 586 0 l 586 920 l 661 920 l 661 992 l 267 992 q 100 928 170 991 q 28 762 31 865 q 97 592 30 656 q 275 526 165 528 l 275 0 l 375 0 "},"¾":{"ha":1103,"x_min":3,"x_max":1078,"o":"m 822 948 l 205 -20 l 281 -20 l 895 948 l 822 948 m 903 423 l 903 198 l 722 198 l 903 423 m 903 0 l 1025 0 l 1025 115 l 1078 115 l 1078 198 l 1025 198 l 1025 528 l 958 528 l 686 201 l 686 115 l 903 115 l 903 0 m 150 881 q 209 859 184 880 q 233 801 233 837 q 205 738 233 765 q 119 698 178 711 l 119 684 q 255 621 214 666 q 294 526 296 575 q 268 461 293 486 q 211 437 243 437 q 141 476 169 441 q 56 515 113 510 q 17 502 31 514 q 3 473 3 490 q 35 420 3 441 q 119 398 66 399 q 315 457 242 400 q 389 598 387 515 q 363 687 389 655 q 286 736 338 719 q 335 775 314 751 q 358 842 357 800 q 322 912 358 886 q 216 939 286 939 q 95 904 144 938 q 22 823 45 870 l 41 817 q 91 867 64 852 q 150 881 117 882 "},"−":{"ha":1153,"x_min":172,"x_max":978,"o":"m 978 475 l 172 475 l 172 342 l 978 342 l 978 475 "},"¼":{"ha":1103,"x_min":53,"x_max":1078,"o":"m 155 831 l 155 487 q 132 438 156 454 q 53 423 109 423 l 53 409 l 389 409 l 389 423 q 311 437 335 422 q 286 487 286 452 l 286 939 l 269 939 l 56 857 l 56 840 q 98 851 77 846 q 131 857 119 857 q 148 849 141 854 q 155 831 155 844 m 822 948 l 205 -20 l 281 -20 l 895 948 l 822 948 m 722 198 l 903 423 l 903 198 l 722 198 m 1025 0 l 1025 115 l 1078 115 l 1078 198 l 1025 198 l 1025 528 l 958 528 l 686 201 l 686 115 l 903 115 l 903 0 l 1025 0 "},"½":{"ha":1103,"x_min":53,"x_max":1069,"o":"m 131 857 q 148 847 141 854 q 155 826 155 840 l 155 487 q 132 438 156 454 q 53 423 109 423 l 53 409 l 389 409 l 389 423 q 311 437 335 422 q 286 487 286 452 l 286 939 l 269 939 l 56 857 l 56 840 q 97 851 79 846 q 131 857 116 857 m 1036 387 q 1001 486 1037 445 q 886 528 965 526 q 756 479 804 526 q 692 376 708 433 l 714 376 q 758 429 733 413 q 817 445 783 446 q 896 414 871 444 q 920 345 920 385 q 871 224 923 292 q 675 18 820 156 l 675 0 l 1034 0 l 1069 165 l 1053 165 q 1015 114 1036 128 q 966 101 994 100 l 800 101 q 874 169 835 136 q 951 235 914 202 q 1011 306 987 269 q 1036 387 1035 344 m 822 948 l 205 -20 l 281 -20 l 895 948 l 822 948 "},"ª":{"ha":530,"x_min":31,"x_max":503,"o":"m 31 404 l 31 328 l 503 328 l 503 404 l 31 404 m 306 584 q 270 550 288 563 q 228 537 252 537 q 188 557 199 538 q 178 604 177 576 q 202 681 176 650 q 306 736 229 712 l 306 584 m 114 764 q 166 781 149 765 q 183 823 183 797 q 169 858 181 848 q 155 881 157 868 q 170 904 155 895 q 216 915 184 914 q 286 895 264 914 q 306 848 307 876 l 306 764 q 101 688 172 729 q 31 581 31 646 q 68 499 33 520 q 150 479 104 477 q 233 497 192 479 q 306 540 274 514 q 333 494 311 509 q 389 479 355 479 q 462 494 435 479 q 503 531 489 509 l 489 548 q 477 539 483 541 q 461 537 471 537 q 453 548 455 540 q 450 565 450 556 l 450 814 q 395 913 450 881 q 236 945 340 945 q 99 911 148 945 q 50 823 51 878 q 68 782 51 799 q 114 764 86 765 "},"º":{"ha":519,"x_min":31,"x_max":486,"o":"m 486 328 l 486 404 l 31 404 l 31 328 l 486 328 m 258 479 q 427 548 369 482 q 486 701 486 614 l 486 731 q 427 872 486 804 q 258 945 369 941 q 90 874 148 941 q 31 726 31 807 l 31 692 q 90 548 31 613 q 258 479 148 483 m 258 918 q 329 848 317 913 q 339 706 342 783 q 329 570 342 630 q 258 507 317 510 q 188 567 200 509 q 178 706 175 625 q 188 853 175 792 q 258 918 200 915 "},"«":{"ha":728,"x_min":28,"x_max":667,"o":"m 650 54 q 662 60 656 54 q 667 73 667 66 q 656 112 667 91 q 616 170 646 134 l 505 315 l 623 465 q 658 519 649 499 q 667 556 667 540 q 664 569 667 563 q 653 576 661 575 q 631 569 642 576 q 600 545 620 562 l 322 315 l 611 76 q 628 61 618 68 q 650 54 639 54 m 211 315 l 330 465 q 366 521 355 501 q 375 556 376 541 q 372 569 375 563 q 361 576 369 575 q 338 568 349 576 q 309 545 327 560 l 28 315 l 317 76 q 335 61 323 68 q 358 54 347 54 q 370 60 365 54 q 375 73 375 66 q 365 112 376 91 q 325 170 354 134 l 211 315 "},"‹":{"ha":436,"x_min":31,"x_max":378,"o":"m 214 315 l 334 465 q 368 521 358 501 q 378 556 378 541 q 375 569 378 563 q 364 576 372 575 q 341 568 352 576 q 311 545 330 560 l 31 315 l 319 76 q 338 61 326 68 q 361 54 350 54 q 373 60 368 54 q 378 73 378 66 q 368 112 378 91 q 328 170 357 134 l 214 315 "},"»":{"ha":728,"x_min":58,"x_max":697,"o":"m 114 76 l 403 315 l 125 545 q 94 569 105 562 q 72 576 83 576 q 61 569 64 575 q 58 556 58 563 q 67 519 58 540 q 103 465 76 499 l 220 315 l 109 170 q 68 112 79 134 q 58 73 58 91 q 63 60 58 66 q 75 54 68 54 q 97 61 86 54 q 114 76 107 68 m 395 465 l 514 315 l 400 170 q 360 112 371 134 q 350 73 349 91 q 355 60 350 66 q 367 54 360 54 q 390 61 378 54 q 408 76 401 68 l 697 315 l 416 545 q 387 568 399 560 q 364 576 376 576 q 353 569 356 575 q 350 556 350 563 q 359 521 349 541 q 395 465 370 501 "},"±":{"ha":1153,"x_min":172,"x_max":981,"o":"m 644 470 l 981 470 l 981 601 l 644 601 l 644 820 l 509 820 l 509 601 l 172 601 l 172 470 l 509 470 l 509 251 l 644 251 l 644 470 m 981 0 l 981 128 l 172 128 l 172 0 l 981 0 "},"›":{"ha":436,"x_min":58,"x_max":403,"o":"m 114 76 l 403 315 l 125 545 q 94 569 105 562 q 72 576 83 576 q 61 569 64 575 q 58 556 58 563 q 67 519 58 540 q 103 465 76 499 l 220 315 l 109 170 q 68 112 79 134 q 58 73 58 91 q 63 60 58 66 q 75 54 68 54 q 97 61 86 54 q 114 76 107 68 "},"∆":{"ha":966,"x_min":33,"x_max":939,"o":"m 497 970 l 475 970 l 33 0 l 939 0 l 497 970 m 439 745 l 747 62 l 134 62 l 439 745 "},"∂":{"ha":692,"x_min":92,"x_max":606,"o":"m 281 731 q 359 780 327 737 q 428 829 392 823 q 494 771 472 829 q 517 598 517 713 q 512 487 517 541 q 497 393 508 433 q 434 492 473 463 q 336 520 396 521 q 162 439 230 518 q 92 229 94 360 q 149 52 93 119 q 297 -17 204 -14 q 520 141 437 -9 q 606 507 604 292 q 537 779 604 686 q 370 873 471 872 q 270 843 308 871 q 231 773 232 814 q 244 742 231 752 q 281 731 258 731 m 355 481 q 442 437 410 481 q 475 320 474 394 q 432 102 475 191 q 306 9 389 13 q 227 43 262 7 q 189 170 191 78 q 239 402 191 323 q 355 481 287 481 "},"≠":{"ha":1153,"x_min":172,"x_max":978,"o":"m 558 320 l 697 498 l 978 498 l 978 587 l 758 587 l 880 748 l 814 801 l 647 587 l 172 587 l 172 498 l 586 498 l 444 320 l 172 320 l 172 231 l 389 231 l 261 73 l 334 18 l 500 231 l 978 231 l 978 320 l 558 320 "},"·":{"ha":697,"x_min":261,"x_max":433,"o":"m 347 373 q 407 399 382 374 q 433 459 432 425 q 407 519 432 494 q 347 545 382 544 q 288 519 313 544 q 261 459 262 494 q 288 399 262 425 q 347 373 313 374 "},"•":{"ha":817,"x_min":208,"x_max":606,"o":"m 406 709 q 263 647 317 706 q 208 509 210 587 q 263 373 210 431 q 406 312 317 315 q 550 373 496 315 q 606 509 604 431 q 550 647 604 587 q 406 709 496 706 "},"∫":{"ha":692,"x_min":31,"x_max":656,"o":"m 486 973 q 529 930 524 968 q 589 887 535 892 q 638 902 621 887 q 656 948 656 917 q 626 1016 655 991 q 542 1042 596 1042 q 342 857 401 1036 q 283 398 282 677 q 271 -8 286 156 q 200 -180 256 -173 q 157 -135 163 -174 q 97 -92 151 -96 q 48 -107 66 -91 q 31 -155 31 -123 q 60 -223 31 -197 q 144 -250 90 -249 q 345 -69 285 -245 q 403 395 404 107 q 416 790 401 617 q 486 973 431 964 "},"‚":{"ha":345,"x_min":69,"x_max":272,"o":"m 81 64 q 101 15 81 30 q 153 0 121 0 q 173 0 163 0 q 192 1 183 1 q 213 -3 206 1 q 220 -25 220 -8 q 174 -122 218 -77 q 69 -208 130 -168 l 86 -228 q 228 -112 183 -173 q 272 18 273 -52 q 237 111 270 82 q 164 140 205 140 q 101 117 121 139 q 81 64 81 95 "},"˘":{"ha":692,"x_min":147,"x_max":536,"o":"m 178 951 l 147 951 q 203 824 155 876 q 342 770 250 772 q 480 824 433 772 q 536 951 528 876 l 505 951 q 441 871 486 888 q 342 857 397 854 q 242 871 286 854 q 178 951 197 888 "},"ˇ":{"ha":692,"x_min":150,"x_max":542,"o":"m 150 976 l 306 743 l 386 743 l 542 976 l 503 976 l 347 831 l 189 976 l 150 976 "},"˙":{"ha":692,"x_min":275,"x_max":419,"o":"m 347 773 q 398 794 377 774 q 419 845 418 815 q 398 896 418 876 q 347 918 377 917 q 297 896 317 917 q 275 845 276 876 q 297 794 276 815 q 347 773 317 774 "},"◊":{"ha":1383,"x_min":294,"x_max":1086,"o":"m 294 456 l 686 -39 l 1086 459 l 686 956 l 294 456 m 689 834 l 991 459 l 689 84 l 392 459 l 689 834 "},"∕":{"ha":231,"x_min":-229,"x_max":458,"o":"m 458 973 l 397 973 l -229 -17 l -168 -17 l 458 973 "},"∏":{"ha":1153,"x_min":45,"x_max":1105,"o":"m 45 1050 l 45 995 l 167 995 l 167 -272 l 45 -272 l 45 -328 l 408 -328 l 408 -272 l 294 -272 l 294 995 l 856 995 l 856 -272 l 742 -272 l 742 -328 l 1105 -328 l 1105 -272 l 983 -272 l 983 995 l 1105 995 l 1105 1050 l 45 1050 "}}}
